<?xml version="1.0" encoding="UTF-8" standalone="no"?><!-- Generator: Gravit.io --><svg xmlns="http://www.w3.org/2000/svg" xmlns:xlink="http://www.w3.org/1999/xlink" style="isolation:isolate" viewBox="0 0 600 600" width="600pt" height="600pt"><defs><clipPath id="_clipPath_gTqQUAL2EgYeTXeIwM9xiakoUYy1GbA9"><rect width="600" height="600"/></clipPath></defs><g clip-path="url(#_clipPath_gTqQUAL2EgYeTXeIwM9xiakoUYy1GbA9)"><g><g><g><g><path d=" M 320.82 72.9 C 320.82 72.9 248.34 14.01 157.71 101.58 C 67.08 189.15 154.68 325.08 169.8 355.29 C 184.92 385.5 152.43 421.74 129.03 411.93 C 129.03 411.93 141.12 442.89 177.36 435.33 C 177.36 435.33 193.98 448.17 215.88 439.86 C 215.88 439.86 228.72 462.51 267.24 451.95 C 267.24 451.95 287.64 470.82 318.6 457.23 C 318.6 457.23 358.62 470.82 378.24 454.95 C 378.24 454.95 415.23 463.26 432.6 442.11 C 432.6 442.11 469.59 448.92 486.21 417.96 C 486.21 417.96 455.25 420.99 448.47 390.78 C 441.66 360.57 457.53 340.95 476.4 302.43 C 495.27 263.91 499.29 172.8 456.24 120.42 C 414 69.09 362.34 63.09 320.82 72.9 Z " fill="rgb(255,255,255)"/><path d=" M 485.88 414.99 C 484.71 415.08 457.5 417.45 451.35 390.12 C 446.13 366.93 454.98 350.07 468.39 324.57 C 471.81 318.06 475.32 311.37 479.07 303.75 C 499.14 262.83 501.09 170.31 458.52 118.5 C 410.58 60.18 352.65 62.61 321.51 69.66 C 311.46 62.46 240.72 17.19 155.64 99.42 C 71.52 180.75 136.92 300.93 161.55 346.17 C 163.83 350.37 165.81 353.97 167.13 356.64 C 175.38 373.17 167.97 390.09 159.09 399.6 C 150.24 409.05 138.9 412.83 130.2 409.17 C 129.093 408.699 127.81 408.949 126.96 409.8 C 126.093 410.64 125.82 411.92 126.27 413.04 C 126.39 413.37 139.41 445.56 176.7 438.54 C 180.87 441.3 195.69 449.67 214.71 443.46 C 219.12 449.13 233.94 463.62 266.49 455.25 C 271.59 459.27 291 472.05 318.72 460.44 C 322.74 461.7 336.57 465.69 351.15 465.69 C 360.99 465.69 371.19 463.89 378.96 458.19 C 386.01 459.51 416.94 464.01 433.8 445.32 C 441.63 446.22 473.52 447.93 488.85 419.4 C 489.375 418.417 489.314 417.225 488.692 416.302 C 488.069 415.378 486.988 414.873 485.88 414.99 Z  M 378.84 452.04 L 378.78 452.04 C 352.41 408.87 360.75 362.19 387.6 321.45 C 410.67 286.5 434.01 253.5 439.41 210.75 C 443.85 175.71 435.27 137.91 411.15 111.3 C 388.26 86.04 353.16 74.34 319.95 82.77 C 317.61 83.37 318.6 86.97 320.94 86.4 C 362.97 75.72 404.82 98.91 423.93 136.71 C 444.78 177.96 438.06 226.47 417.99 266.58 C 401.67 299.19 374.1 326.07 363.12 361.35 C 353.46 392.37 358.59 425.88 375.21 453.45 C 356.7 466.83 319.83 454.56 319.44 454.44 C 319.132 454.33 318.807 454.279 318.48 454.29 C 318.06 454.29 317.67 454.38 317.28 454.53 C 288.6 467.13 269.94 450.51 269.19 449.79 C 268.436 449.081 267.366 448.819 266.37 449.1 C 237.57 457.02 224.31 445.65 220.02 440.61 C 277.44 383.76 197.04 293.37 174.6 239.16 C 156.96 196.56 157.86 149.55 189.9 113.88 C 219.96 80.4 268.44 71.7 309.45 88.35 C 311.67 89.25 312.66 85.62 310.44 84.72 C 240.99 56.52 161.46 104.67 158.64 180.87 C 157.11 223.74 180.75 261.9 201.3 297.72 C 223.86 336.99 256.2 398.28 217.71 437.52 C 216.887 436.843 215.765 436.66 214.77 437.04 C 194.79 444.6 179.79 433.41 179.16 432.93 C 179.04 432.84 178.89 432.81 178.77 432.75 C 206.07 418.38 209.1 382.74 199.05 355.05 C 191.55 334.41 178.41 316.38 167.61 297.42 C 155.04 275.34 144.33 252 138.6 227.16 C 127.62 179.49 138.3 129.63 175.5 96.24 C 213.57 62.04 269.16 56.7 314.28 79.71 C 314.67 80.34 315.36 80.76 316.29 80.58 C 357.96 71.82 401.31 82.74 429.33 116.01 C 459.66 152.01 461.34 197.85 448.08 241.29 C 429 303.78 379.74 381.21 428.46 442.17 C 411.81 459.12 379.17 452.1 378.84 452.04 L 378.84 452.04 Z  M 433.11 439.17 C 432.42 439.05 431.7 439.2 431.1 439.53 C 369.45 362.61 465.18 265.89 460.23 183.3 C 458.22 150.06 441.72 118.14 415.62 97.41 C 387.6 75.15 351.03 69.81 316.65 76.71 L 316.56 76.62 C 244.08 39.48 152.64 78.33 133.95 159 C 123.69 203.28 137.46 248.55 158.01 287.7 C 170.37 311.25 187.62 333.06 196.23 358.41 C 205.68 386.19 201.48 422.52 169.35 432.66 C 168.87 432.81 168.54 433.11 168.33 433.47 C 149.64 434.28 139.44 423.45 134.85 416.46 C 144.42 417.42 154.86 412.86 163.44 403.68 C 173.64 392.79 182.1 373.23 172.47 353.94 C 171.09 351.18 169.11 347.52 166.8 343.29 C 142.77 299.16 78.93 181.89 159.78 103.74 C 247.32 19.14 316.02 72.9 318.9 75.21 C 319.62 75.78 320.58 76.02 321.48 75.81 C 357.42 67.32 409.62 68.46 453.84 122.31 C 494.91 172.32 492.99 261.6 473.64 301.11 C 469.95 308.64 466.44 315.33 463.05 321.78 C 449.52 347.52 439.77 366.09 445.47 391.44 C 450.93 415.68 470.97 420.18 480.84 420.9 C 464.61 444.57 434.43 439.41 433.11 439.17 L 433.11 439.17 Z " fill="rgb(0,0,0)"/></g></g><g><path d=" M 259.5 366 C 259.5 422.4 267.6 516.9 235.2 540 C 202.8 563.1 139.8 581.7 125.1 613.2 C 110.4 644.7 114.3 656.4 114.3 656.4 L 486.6 656.4 C 486.6 656.4 488.4 632.1 474 610.2 C 454.2 579.9 388.5 557.1 364.5 541.5 C 340.2 525.9 331.8 444.9 331.8 365.1 L 259.5 366 Z " fill="rgb(255,255,255)"/></g><g><path d=" M 490.2 660.3 L 111.6 660.3 L 110.7 657.6 C 110.4 656.1 106.8 643.5 121.5 611.7 C 131.7 589.8 162.3 574.5 192 559.5 C 207.3 552 221.7 544.5 232.8 537 C 258.6 519 257.1 447.6 255.9 395.7 C 255.6 385.2 255.6 375.3 255.6 366.3 L 255.6 362.4 L 335.7 361.2 L 335.7 365.1 C 335.7 461.1 347.1 525.6 366.6 538.2 C 373.8 543 384.6 548.1 397.2 554.4 C 426.3 568.5 462.9 586.2 477.3 608.4 C 492.3 631.2 490.5 656.1 490.5 657 L 490.2 660.3 L 490.2 660.3 Z  M 117.9 652.5 L 482.7 652.5 C 482.4 645.3 480.9 627.9 470.7 612.3 C 457.5 592.2 422.1 574.8 393.9 561.3 C 381 555 369.9 549.6 362.4 544.8 C 333 525.9 328.2 428.4 327.9 369 L 263.4 370.2 C 263.4 378 263.7 386.7 263.7 395.7 C 264.9 452.4 266.4 522.9 237.3 543.6 C 225.9 551.7 211.2 558.9 195.6 566.7 C 167.1 581.1 137.4 595.8 128.7 615 C 118.8 635.7 117.6 647.7 117.9 652.5 L 117.9 652.5 Z " fill="rgb(0,0,0)"/><path d=" M 230.4 566.1 C 244.8 573 261.6 577.8 277.5 574.8 C 278.7 574.5 278.7 572.7 277.5 572.4 C 262.2 569.7 246.9 568.2 231.9 562.8 C 230.1 562.2 228.6 565.2 230.4 566.1 Z " fill="rgb(0,0,0)"/><path d=" M 324.9 573.3 C 332.1 574.2 339.6 572.1 346.2 569.7 C 352.5 567.3 359.1 564.6 363.6 559.5 C 365.1 558 363.3 555.9 361.5 556.8 C 355.2 559.5 349.8 563.7 343.2 565.8 C 337.2 567.9 330.9 568.8 324.6 570.3 C 322.8 570.6 323.4 573 324.9 573.3 L 324.9 573.3 Z " fill="rgb(0,0,0)"/></g><g><path d=" M 255.6 491.7 C 255.6 491.7 236.4 491.7 231.3 496.5 C 231.3 496.5 212.4 502.2 207 519.6 C 207 519.6 192.6 537 193.5 546.6 L 179.4 561.9 C 179.4 561.9 153.9 571.2 146.4 575.4 C 139.2 579.6 129.6 590.7 129.6 590.7 C 129.6 590.7 116.7 598.8 113.7 606.6 C 110.7 614.4 103.5 637.5 108.9 659.1 L 492 659.1 C 492 659.1 491.1 624.3 488.7 616.2 C 486.3 608.1 471.3 588.3 464.4 586.8 C 464.4 586.8 443.1 567.9 437.4 565.5 C 431.7 563.1 416.7 558.3 416.7 558.3 C 416.7 558.3 401.7 548.1 396.3 537.6 C 395.4 535.8 381.9 513.9 378 511.5 C 378 511.5 376.5 505.2 366.9 498 C 357.3 490.8 341.7 489.3 341.7 489.3 C 341.7 489.3 343.5 496.5 345.6 508.5 C 347.4 520.5 348.6 528.3 345 536.4 C 341.7 544.5 330.6 552.9 322.2 561.9 C 313.8 570.9 308.7 575.4 304.2 586.2 C 304.2 586.2 285.3 567.9 271.5 561 C 257.7 554.1 252.3 548.4 249.9 539.4 C 247.8 530.7 255.6 491.7 255.6 491.7 L 255.6 491.7 Z " fill="rgb(255,255,255)"/><path d=" M 491.7 615.6 C 489.3 607.5 474.9 587.4 466.2 584.4 C 462.3 581.1 444.6 565.5 438.9 563.1 C 433.5 561 420.9 556.8 418.2 555.9 C 416.1 554.4 403.5 545.4 399.3 536.4 C 399 535.5 386.4 514.8 380.7 510 C 379.8 507.6 377.1 501.9 368.7 495.9 C 358.5 488.1 342.6 486.6 342 486.6 C 341.1 486.6 340.2 486.9 339.3 487.8 C 338.7 488.4 338.4 489.6 338.7 490.5 C 338.7 490.5 340.5 497.7 342.6 509.4 C 344.4 520.8 345.3 528.3 342.3 535.8 C 340.2 540.6 334.8 546 329.1 551.4 C 326.1 554.4 322.8 557.4 320.1 560.4 C 318.6 562.2 317.1 563.7 315.9 565.2 C 310.8 570.6 306.9 574.8 303.6 581.7 C 297.6 576 284.1 564.3 273 558.9 C 258.6 552 254.7 546.6 252.9 539.1 C 251.4 533.7 254.4 513.3 257.1 498 C 258.3 497.4 258.9 495.9 258.3 494.4 C 258.3 494.1 258 493.8 258 493.8 C 258 493.2 258.3 492.6 258.3 492.3 C 258.6 491.4 258.3 490.5 257.7 489.9 C 257.1 489.3 256.2 488.7 255.3 488.7 C 252 488.7 234.6 489 229.2 494.4 C 228.3 495.6 226.2 496.5 223.8 497.7 C 217.8 500.7 208.5 505.2 204.3 518.4 C 201.6 521.7 190.5 535.8 190.5 545.7 L 177.9 559.8 C 173.7 561.3 152.1 569.1 145.2 573.3 C 138.3 577.5 129.6 587.1 127.8 588.9 C 125.4 590.4 114 598.2 111 606 C 108.3 612.9 100.5 637.2 106.2 660.3 C 106.5 661.5 107.7 662.7 109.2 662.7 L 492 662.7 C 492.9 662.7 493.5 662.4 494.1 661.8 C 494.7 661.2 495 660.3 495 659.7 C 495 658.2 494.1 624.3 491.7 615.6 L 491.7 615.6 Z  M 412.8 561.6 C 412.8 560.7 412.5 560.1 412.5 559.2 C 412.8 559.5 413.1 559.8 413.7 560.1 C 413.4 560.4 413.1 561 412.8 561.6 Z  M 406.2 554.1 C 407.1 558 406.8 561.9 407.4 565.8 C 407.4 566.1 408 566.4 408.3 565.8 C 409.2 562.5 408.6 558.6 407.7 555 C 408.9 555.9 410.1 556.8 411 557.7 C 411.3 559.5 411.6 561.3 411.6 563.4 C 409.2 566.7 405 569.7 399.9 572.4 L 400.2 572.1 C 401.4 568.2 401.4 564 401.1 560.1 C 401.1 559.5 400.2 559.5 400.2 560.1 C 400.5 564.3 399.9 567.9 399 572.1 C 399 572.4 399.3 572.7 399.6 572.7 C 397.5 573.9 395.4 574.8 393 576 C 393.6 572.7 394.2 569.4 394.8 566.4 C 395.1 565.5 393.6 565.2 393.6 566.1 C 392.7 569.4 391.5 573.3 390.9 576.9 C 390 577.2 389.1 577.5 388.5 578.1 L 390.3 571.8 C 390.6 571.2 389.4 570.6 389.1 571.5 C 388.5 574.2 387.3 576.6 386.4 579 C 385.2 579.6 384 579.9 382.8 580.5 C 383.7 578.1 384.3 575.4 384.6 573.3 C 384.6 572.7 383.7 572.7 383.7 573.3 C 383.4 576 382.5 578.1 381.3 580.5 C 381 580.8 381 581.1 380.7 581.4 L 376.2 583.2 L 375.3 583.5 L 378.9 574.5 C 379.2 573.9 378 573.6 377.7 574.2 C 376.2 577.5 374.7 580.8 373.5 584.4 C 372.3 585 370.8 585.3 369.6 585.9 C 371.4 582.9 372.6 579.3 373.2 576 C 373.2 575.4 372.3 575.1 372.3 575.7 C 371.4 579.9 369.3 583.2 367.2 586.8 L 364.5 587.7 C 366 585 366.9 581.7 367.2 579.3 C 367.2 578.7 366.6 578.4 366.3 579 C 366 581.4 365.1 583.5 363.9 585.3 C 363.3 586.2 362.7 587.1 361.8 588.3 L 359.1 589.2 C 360.6 586.8 361.5 584.1 362.4 581.7 C 362.7 581.1 361.8 580.8 361.5 581.4 C 360.9 583.5 360 585.3 358.8 587.1 C 358.2 588 357.6 588.9 356.7 589.8 C 355.8 590.1 354.9 590.4 353.7 590.7 C 354.6 589.2 355.2 587.4 356.1 585.9 C 356.4 585.3 355.5 585 355.5 585.6 C 354.3 587.4 352.8 589.5 351.6 591.6 C 351 591.9 350.1 592.2 349.2 592.5 C 349.5 591.6 350.1 590.7 350.4 589.8 C 350.7 589.2 349.8 588.9 349.5 589.5 C 348.9 590.7 348 591.9 347.4 593.4 L 344.7 594.3 C 345 593.7 345.3 593.1 345.9 592.5 C 346.2 591.9 345.3 591.3 345 591.9 C 344.4 592.8 343.5 593.7 342.6 594.9 C 336.3 597 330.3 599.1 325.2 600.6 C 321.3 597.6 317.7 595.5 315 594 C 321.3 585.3 329.7 575.4 336.9 570.6 C 339.6 568.8 342.6 566.7 345.9 564.9 C 357.9 557.1 371.7 548.7 378.3 535.5 C 380.7 530.7 381.9 526.2 382.5 522.9 C 385.8 527.4 389.1 532.8 391.2 536.1 C 390.6 540 389.7 544.2 389.4 548.1 C 388.8 548.7 387.9 549.6 387 550.2 C 387.9 545.1 388.8 539.7 389.7 534.6 C 389.7 534 388.8 533.7 388.8 534.3 C 387.6 540 386.1 546 385.2 552 C 384.3 552.6 383.7 553.5 382.8 554.1 C 383.7 549.6 384 544.8 384.6 540.6 C 384.6 540 383.7 539.7 383.7 540.3 C 382.8 545.4 381.3 550.5 381 555.6 C 379.8 556.5 378.6 557.4 377.7 558.3 C 378.3 554.4 379.2 550.8 380.4 546.9 C 380.7 546.3 379.8 546 379.5 546.6 C 377.7 550.5 376.2 555.3 375.9 559.8 L 373.2 561.6 C 373.2 561 373.5 560.4 373.5 559.8 L 374.4 553.5 C 374.4 552.9 373.5 552.6 373.5 553.2 C 372.9 555.3 372.6 557.7 372.3 559.8 C 372 560.7 372 561.6 371.7 562.8 C 371.1 563.1 370.5 563.7 369.6 564 C 370.2 561.6 370.2 559.2 370.5 556.8 C 370.5 556.2 369.9 556.2 369.6 556.5 C 369 559.2 368.1 561.9 367.5 564.9 C 366.9 565.2 366.3 565.5 366 565.8 C 366 565.2 366 564.9 366.3 564.3 C 366.6 562.5 366.9 561 366.9 559.2 C 366.9 558.6 366.3 558.6 366 559.2 L 365.1 564.6 C 364.8 565.2 364.8 566.1 364.5 567 C 363.9 567.3 363 567.9 362.1 568.2 C 362.4 566.7 362.7 565.2 363.3 563.7 C 363.6 563.1 362.7 562.8 362.4 563.4 C 361.8 565.2 361.2 567 360.6 569.1 C 359.7 569.4 358.8 570 357.9 570.3 C 357.3 570.6 357 570.9 356.7 571.2 C 357 570.3 357.3 569.1 357.6 568.2 C 357.9 567.6 357 567.3 356.7 567.9 C 356.1 569.7 355.5 571.2 355.2 573 C 355.2 573.3 355.8 573.6 356.1 573.3 C 356.1 573.3 356.1 573 356.4 573 C 356.4 573.3 356.4 573.9 356.7 574.2 C 357.3 575.4 358.2 576 359.4 576 C 359.7 576 360 576 360.6 575.7 C 379.8 567.9 395.1 552 399.9 546.9 C 401.7 549.9 404.1 552.3 406.2 554.1 L 406.2 554.1 Z  M 324.9 607.5 C 327.3 609.6 330 611.7 332.4 614.4 C 340.8 623.1 341.4 630.9 339.9 633.3 C 339.6 633.6 339.3 634.5 337.2 633.6 C 332.1 631.8 328.2 622.2 325.2 615.3 C 324 612.6 323.1 610.2 321.9 608.4 C 323.1 608.1 324 607.8 324.9 607.5 Z  M 318.6 603.3 C 318.3 603 318.3 602.7 318 602.4 C 318.3 602.7 318.6 602.7 318.9 603 C 318.9 603.3 318.9 603.3 318.6 603.3 L 318.6 603.3 Z  M 295.2 611.1 C 297 611.1 298.8 611.1 300.6 611.4 C 299.4 614.7 298.2 618.3 297.3 621.6 C 296.7 624.3 296.7 626.7 296.4 629.1 C 296.1 634.5 296.1 637.8 289.8 641.1 C 287.7 642.3 286.2 642.3 285.9 642 C 284.7 640.8 284.1 633.3 291 618.6 C 292.5 615.3 293.7 612.9 295.2 611.1 L 295.2 611.1 Z  M 277.8 604.2 C 276.9 603.3 275.7 602.4 274.8 601.5 C 274.2 600.9 273.3 601.8 273.9 602.4 L 275.7 604.2 C 273.9 604.2 271.8 603.9 270 603.9 C 269.4 603.3 269.1 602.4 268.8 601.5 C 268.5 600.6 267.3 600.9 267.6 601.8 C 267.9 602.4 267.9 603 268.5 603.6 C 266.4 603.3 264 603.3 261.9 603 C 261.3 602.4 261 601.5 260.7 600.9 C 260.4 600.3 259.5 600.6 259.8 601.2 L 260.7 603 L 252.6 602.1 C 251.7 600.9 250.8 599.4 249.9 598.2 C 249.6 597.6 248.7 598.2 249 598.8 C 249.6 600 250.2 600.9 250.8 602.1 C 248.4 601.8 246 601.5 243.9 601.2 C 243.3 600.6 242.7 599.7 242.4 598.8 C 241.5 597.3 241.2 595.8 240.6 594 C 240.3 593.1 238.8 593.4 239.1 594.3 C 239.4 596.4 240.3 598.5 241.5 600.6 C 239.1 600.3 237 600 234.9 599.4 C 232.2 596.1 230.4 592.8 229.8 588 C 229.8 587.1 228.3 587.1 228.6 588 C 228.9 591.6 230.1 595.5 232.2 598.8 C 230.1 598.5 228.3 597.9 226.8 597.3 C 224.1 594 222.3 590.4 221.1 586.5 C 221.7 586.2 222.3 585.9 222.6 585.3 C 223.5 583.8 223.2 582 221.7 581.1 C 219.9 579.9 218.4 578.7 216.9 577.5 C 216.9 566.7 218.4 557.1 223.5 547.8 C 225 550.2 226.8 552.6 228.9 554.7 C 225.3 561.6 223.2 569.1 224.1 576.9 C 224.1 577.5 225 577.5 225 576.9 C 225.3 569.1 226.2 562.2 229.5 555.3 C 231.6 557.7 233.7 559.8 235.8 562.2 C 235.2 564.6 234.6 566.7 234.3 569.1 C 234.3 569.7 234.9 570 235.2 569.4 C 236.1 567.6 236.4 565.5 237 563.4 C 246.3 572.4 257.1 579.6 266.4 582.9 C 279.6 587.4 292.5 594 300 598.5 C 297.6 599.7 295.2 601.5 292.5 604.5 C 288 604.8 282.9 604.5 277.8 604.2 L 277.8 604.2 Z  M 242.7 495.6 C 244.2 496.2 245.4 496.8 246.9 497.1 C 246 497.7 244.8 498.6 243.6 499.8 C 242.1 498.3 240 497.4 237.9 496.5 C 239.1 496.2 240.9 495.9 242.7 495.6 Z  M 210.3 571.5 C 211.5 560.7 213.9 551.4 219.6 542.1 C 220.5 543.9 221.4 545.4 222.6 547.2 C 217.2 556.2 214.2 566.7 215.7 576.9 C 213.6 575.1 211.8 573.3 210.3 571.5 L 210.3 571.5 Z  M 203.1 561.3 C 204.3 550.8 208.2 541.5 216.3 534.3 C 216.9 536.4 217.8 538.5 219 540.6 C 213.3 549.3 209.7 559.5 209.4 570 C 206.7 567 204.6 564 203.1 561.3 L 203.1 561.3 Z  M 220.8 526.5 C 220.8 525 221.1 523.5 221.1 522.3 C 225.6 521.1 230.1 520.5 234.6 519.9 C 234.9 522.6 235.2 525.3 236.1 527.7 L 235.8 527.7 C 230.7 528.3 226.2 530.7 221.7 533.4 C 221.4 530.7 220.8 528.6 220.8 526.5 L 220.8 526.5 Z  M 246.9 504.9 C 247.8 505.8 248.7 507 249.6 507.9 C 249.3 508.8 249.3 510 249 510.9 L 247.2 509.1 L 245.1 507 C 245.7 506.1 246.3 505.5 246.9 504.9 L 246.9 504.9 Z  M 244.2 508.2 C 244.8 508.8 245.4 509.7 246.3 510.3 C 247.2 511.2 248.1 512.4 249 513 C 248.7 513.9 248.7 514.8 248.7 515.7 C 247.8 515.1 246.6 514.5 245.7 513.6 C 244.5 512.7 243.6 512.1 242.4 511.2 C 242.7 510.3 243.3 509.1 244.2 508.2 L 244.2 508.2 Z  M 240.9 516.3 L 241.8 512.7 C 243 513.6 243.9 514.5 245.1 515.1 C 246 516 247.2 516.9 248.4 517.5 C 248.1 519.3 248.1 520.8 247.8 522.3 C 246.9 521.7 246 521.1 245.1 520.2 C 243.6 519 242.4 518.1 240.9 517.2 C 240.6 517.2 240.6 516.9 240.9 516.3 L 240.9 516.3 Z  M 237 508.2 C 234 507 230.7 506.4 227.4 505.8 C 228.6 504 229.8 502.5 230.7 501.3 C 233.4 502.5 236.4 503.4 239.1 504.3 C 238.5 505.5 237.6 507 237 508.2 L 237 508.2 Z  M 226.8 507 C 230.1 507.6 233.1 508.8 236.4 509.7 C 235.8 510.9 235.5 511.8 235.2 513 C 231.6 512.4 228 511.8 224.4 511.5 C 225.3 509.7 225.9 508.2 226.8 507 Z  M 243.9 522.6 C 245.1 523.5 246 524.4 247.2 525.3 C 247.2 526.8 246.9 528 246.9 529.2 L 245.1 527.4 C 243.9 526.2 242.7 525.3 241.5 524.1 L 240.6 519.6 C 241.8 520.8 243 521.7 243.9 522.6 L 243.9 522.6 Z  M 243.9 528.9 L 246.9 531.9 L 246.9 535.5 C 245.4 533.1 243.9 530.7 243 528 L 243.9 528.9 Z  M 250.5 501.9 C 250.2 502.2 250.2 502.5 250.2 502.8 C 249.9 503.7 249.9 504.6 249.6 505.8 C 249 505.2 248.4 504.6 247.8 503.7 C 249 503.1 249.9 502.2 250.5 501.9 L 250.5 501.9 Z  M 248.1 496.2 C 247.8 496.2 247.8 496.2 248.1 496.2 C 247.5 495.6 246.9 495.3 246.3 495 C 247.8 494.7 249.3 494.7 250.8 494.7 C 249.6 495.3 248.7 495.6 248.1 496.2 Z  M 233.4 498.6 C 233.7 498.3 234.6 497.7 235.5 497.4 C 236.4 497.7 237.6 498 238.5 498.6 C 240 499.2 241.2 500.1 242.7 500.7 C 241.8 501.6 240.9 502.5 240.3 503.4 C 237.6 502.2 234.6 501.3 231.9 500.4 C 232.8 499.2 233.4 498.6 233.4 498.6 L 233.4 498.6 Z  M 224.1 512.4 C 227.7 513 231.6 513.6 235.2 514.2 C 235.2 514.5 234.9 515.1 234.9 515.7 C 234.6 516.9 234.6 518.1 234.6 519 C 230.1 518.7 225.6 519.6 221.4 520.8 C 222 517.8 222.9 515.1 224.1 512.4 L 224.1 512.4 Z  M 215.7 532.8 C 207.9 539.4 202.5 548.7 201.9 558.9 C 200.4 555.9 199.2 553.5 198.3 551.1 C 199.8 541.2 208.8 530.1 214.8 523.8 L 214.8 526.2 C 214.8 528.6 215.1 530.7 215.7 532.8 Z  M 196.5 561.9 C 195.6 566.7 195.6 571.5 196.8 576 C 194.4 573.6 192 571.2 190.2 569.1 C 190.2 563.7 191.1 558.9 192.9 554.1 C 194.1 556.5 195 559.2 196.5 561.9 L 196.5 561.9 Z  M 198.6 577.8 C 197.7 573 197.1 568.5 197.4 563.7 C 199.2 567 201.6 570.6 204.6 574.2 C 204.6 577.8 205.2 581.7 206.7 585 L 198.6 577.8 Z  M 208.5 586.5 C 207.3 582.9 206.4 579.3 206.1 575.7 C 207.9 577.8 210.3 579.9 212.7 582 C 213 585.6 214.2 588.9 216 591.9 C 213.6 590.4 210.9 588.6 208.5 586.5 Z  M 217.8 593.4 C 216 590.1 214.5 586.8 213.9 583.2 C 215.1 584.4 216.6 585.3 218.1 586.5 C 218.4 586.8 218.7 586.8 219.3 586.8 C 220.2 590.4 221.7 593.7 223.8 596.7 C 222 595.8 219.9 594.6 217.8 593.4 L 217.8 593.4 Z  M 303.3 603.9 C 303 604.2 303 604.8 302.7 605.1 L 300.9 605.1 C 301.8 604.5 302.7 604.2 303.3 603.9 Z  M 312.3 604.8 L 312.6 605.1 L 312.3 605.1 C 312.6 605.1 312.6 604.8 312.3 604.8 Z  M 396 542.7 C 395.4 543.3 394.2 544.8 392.4 546.6 C 392.7 543.9 393 540.9 393.3 537.9 C 393.6 538.5 393.9 538.8 393.9 539.1 C 394.5 540.3 395.1 541.5 396 542.7 Z  M 346.2 495 C 346.8 495.3 347.1 495.9 347.7 496.5 C 347.4 496.8 347.1 497.4 346.8 497.7 C 346.8 496.8 346.5 495.9 346.2 495 Z  M 348.9 497.4 L 351.3 499.8 C 350.4 501 349.8 502.2 348.9 503.1 C 348.6 503.4 348.6 503.7 348.3 504 C 348 502.5 347.7 501 347.4 499.8 C 347.7 498.9 348.3 498.3 348.9 497.4 Z  M 350.1 531 C 352.5 528.9 354 526.2 356.1 523.8 C 356.7 523.2 357.3 522.3 358.2 521.7 C 356.1 526.5 352.8 530.4 349.8 533.4 C 349.8 532.5 350.1 531.6 350.1 531 Z  M 351.9 523.2 C 354.3 521.4 355.8 518.7 357.6 516.6 C 358.2 516 358.5 515.4 359.1 514.8 C 359.4 516 359.4 517.5 358.8 518.7 L 354.3 523.2 C 352.8 524.7 351.3 526.5 350.1 528 C 350.4 525 350.1 521.7 349.8 518.4 C 351.3 516.6 352.2 514.5 353.4 512.7 C 354.3 511.2 355.8 509.7 357 508.5 L 358.8 513 C 357.9 514.2 357 515.1 356.1 516 C 354.3 518.1 352.2 520.2 350.7 522.6 C 350.7 523.2 351.6 523.5 351.9 523.2 L 351.9 523.2 Z  M 352.5 511.5 C 351.6 512.7 350.4 514.2 349.8 515.7 C 349.5 514.5 349.5 513 349.2 511.5 C 350.7 510 351.9 508.2 353.1 506.7 C 353.7 506.1 354.3 505.2 354.9 504.3 L 356.7 507 C 355.2 508.2 353.7 509.7 352.5 511.5 L 352.5 511.5 Z  M 351.6 506.4 C 350.7 507.3 349.8 508.5 349.2 509.4 L 349.2 508.5 C 349.2 507.6 348.9 507 348.9 506.1 C 349.5 505.5 349.8 504.6 350.1 504 C 350.7 502.8 351.6 501.6 352.5 500.7 C 353.1 501.6 354 502.2 354.6 503.1 C 353.1 504.3 352.2 505.2 351.6 506.4 L 351.6 506.4 Z  M 302.7 588.9 C 303.3 589.5 304.5 589.8 305.4 589.8 C 306.3 589.5 307.2 588.9 307.5 588 C 310.8 579.9 314.7 575.7 320.4 569.4 C 321.9 567.9 323.1 566.4 324.9 564.6 C 327.6 561.6 330.6 558.6 333.6 555.9 C 337.2 552.6 340.5 549.3 343.2 546 C 344.1 546 345 545.4 345.3 544.8 C 345.6 544.5 346.5 543.9 347.1 543.3 C 351.6 539.7 360.9 532.5 364.5 521.7 C 367.8 512.1 361.2 502.2 355.5 496.2 C 358.8 497.4 362.4 498.9 365.1 501 C 373.5 507.3 375 512.7 375 512.7 L 375 513 C 375 513 375 513.3 375.3 513.3 C 375.3 513.6 375.6 513.6 375.6 513.9 L 375.6 514.2 C 375.9 514.5 380.7 520.2 373.8 533.4 C 367.8 544.8 354.9 553.2 343.5 560.4 C 340.2 562.5 337.2 564.3 334.2 566.4 C 326.1 571.8 316.8 582.6 309.9 592.5 C 309.3 592.5 308.4 592.8 307.8 593.4 C 307.2 593.1 306.6 593.1 306 593.1 C 305.1 593.4 304.2 593.4 303.6 594.9 C 296.1 590.4 282.3 582.9 267.9 578.1 C 266.1 577.5 264.6 576.9 262.8 576 L 263.1 576 L 268.5 568.8 C 268.8 568.5 268.2 567.9 267.9 568.2 C 265.8 570.3 264 572.7 262.2 575.1 C 261.9 575.4 261.9 575.4 262.2 575.7 C 258.6 573.9 255.3 571.8 251.7 569.4 C 252.6 567 253.8 564.6 255.6 562.5 C 256.8 561 258.3 559.8 259.8 558.9 C 262.8 561 266.1 563.1 270.3 564.9 C 284.1 570.6 302.4 588.6 302.7 588.9 L 302.7 588.9 Z  M 258.6 557.4 C 255 559.8 252.3 564 250.5 568.2 C 246.3 564.9 242.1 561.3 238.5 557.4 C 241.2 554.7 244.2 552 246.3 549 C 246.6 548.4 246 548.1 245.4 548.4 C 242.7 550.8 240 553.8 237.6 556.5 C 235.2 554.1 233.1 551.7 231.3 549.3 C 234.6 546.6 238.2 544.2 241.5 541.8 C 242.1 541.5 241.8 540.6 241.2 540.9 C 237.3 542.4 233.7 545.1 230.4 548.4 C 228.9 546.6 227.7 544.5 226.5 542.7 C 229.8 540.6 233.1 538.5 236.1 536.1 C 236.4 535.8 236.1 535.2 235.5 535.5 C 232.2 537.3 229.2 539.7 225.9 541.8 C 224.4 539.4 223.2 537 222.3 534.9 C 226.8 532.5 231.3 530.7 236.1 528.9 C 236.1 528.9 236.4 528.9 236.4 528.6 C 240.3 539.7 249.6 549.3 249.9 549.9 C 250.5 550.5 250.8 550.5 251.7 550.8 C 253.5 552.9 255.9 555 258.6 557.4 L 258.6 557.4 Z  M 220.2 506.4 C 217.8 510.9 215.7 516.3 215.1 522.3 C 208.8 528.3 203.7 535.5 199.8 543.3 C 198.9 545.1 198 546.9 197.4 548.7 C 196.8 547.5 196.8 546.3 196.5 546 C 195.9 539.7 204 527.7 209.4 521.4 C 209.7 521.1 210 520.8 210 520.2 L 210 519.9 C 211.8 518.1 213.3 516 215.1 514.2 C 215.4 513.9 214.8 513.3 214.5 513.6 L 210.9 517.2 C 213.3 512.1 216.6 508.8 220.2 506.4 L 220.2 506.4 Z  M 192.3 552.9 C 189.9 557.7 188.7 562.8 189.3 567.9 C 186.9 565.5 185.4 563.4 183.9 562.2 L 192.3 552.9 Z  M 148.5 578.1 C 154.2 574.5 172.8 567.6 178.8 565.5 C 184.5 571.8 206.1 595.8 222.6 602.7 C 234.6 607.5 265.8 609.6 288.3 610.8 C 287.4 612.3 286.5 613.8 285.6 615.6 C 282.3 622.8 275.1 639.9 281.7 645.9 C 282.6 646.8 284.1 647.7 286.5 647.7 C 288.3 647.7 290.1 647.1 292.8 645.9 C 302.1 640.8 302.4 634.5 302.7 628.8 C 302.7 626.7 303 624.6 303.3 622.5 C 303.6 621.3 303.9 619.8 304.5 618.3 C 305.1 626.7 306 637.8 307.5 652.5 C 307.8 654 309 655.2 310.5 655.2 L 310.8 655.2 C 312.6 654.9 313.8 653.7 313.5 651.9 C 312.6 641.4 311.7 630.6 310.8 621 C 314.4 633.3 319.2 647.4 323.7 652.5 C 324.6 653.7 326.7 654 327.9 652.8 C 329.1 651.6 329.4 649.8 328.2 648.6 C 323.4 642.9 317.7 623.4 314.1 610.5 C 314.7 610.2 315.3 610.2 316.5 609.9 C 317.4 611.4 318.6 614.4 320.1 617.4 C 323.7 625.8 327.9 636 335.7 639 C 336.9 639.6 338.1 639.6 339.3 639.6 C 342 639.6 344.1 638.4 345.6 636.3 C 348.9 631.2 347.1 620.1 337.2 609.9 L 332.1 604.8 C 333.3 604.5 334.5 603.9 336 603.6 L 336 603.9 C 335.7 604.2 336.3 604.5 336.6 604.2 L 337.5 603.3 C 351 598.8 366.9 593.4 377.1 589.5 L 379.2 588.6 C 397.8 581.1 415.5 574.2 419.7 562.2 C 424.5 563.7 433.2 566.7 437.1 568.5 C 440.7 570 453.3 580.2 461.4 587.7 C 457.8 594.3 448.5 614.4 449.4 656.7 L 156 656.7 C 156.6 620.1 140.1 597.9 134.1 591 C 137.1 587.7 143.4 581.1 148.5 578.1 L 148.5 578.1 Z  M 464.4 656.7 C 462.9 656.1 461.4 655.2 460.2 654 C 458.1 652.5 456.3 650.7 454.8 648.9 C 454.8 645.3 455.1 642 455.1 639 C 460.8 646.2 468.3 652.5 476.7 656.7 L 464.4 656.7 L 464.4 656.7 Z  M 454.8 651.9 C 456.6 653.7 458.4 655.2 460.5 656.4 L 454.8 656.4 L 454.8 651.9 Z  M 126 655.8 C 120.6 653.7 115.5 651.9 110.7 649.2 C 110.4 646.2 110.4 643.5 110.4 640.5 C 120.3 647.1 131.1 652.2 142.8 654.3 C 143.4 654.3 143.7 653.4 143.1 653.4 C 131.7 649.8 120.9 645.6 110.7 639 C 110.7 635.4 111.3 632.1 111.6 628.8 C 123 635.1 135 640.5 147.9 643.2 C 148.5 643.5 148.8 642.3 148.2 642 C 135.9 637.5 123.6 633 111.9 627.3 C 113.1 619.5 115.2 613.2 116.4 609.6 C 116.4 609.6 116.4 609.9 116.7 609.9 C 125.7 615.3 135 620.1 145.2 623.1 C 146.1 626.1 147.3 629.4 147.9 633 C 136.8 628.5 125.4 624.6 114.9 618.3 C 114.3 618 113.7 618.9 114.3 619.5 C 124.5 626.1 135.9 632.1 148.2 634.5 C 149.7 641.1 150.3 648.6 150 656.7 L 126.3 656.7 C 126.3 656.4 126.3 656.1 126 655.8 L 126 655.8 Z  M 129.6 594.9 C 130.5 595.8 131.4 597.3 132.9 599.1 C 131.4 598.2 129.6 597.3 128.1 596.1 C 128.4 595.8 129 595.2 129.6 594.9 Z  M 126.9 597 C 129.6 598.8 132 600.3 135 601.8 C 136.5 604.2 138.3 607.2 140.1 610.8 C 134.7 607.5 128.7 605.4 122.7 602.7 C 121.8 602.4 121.2 603.6 122.1 603.9 C 128.1 606.6 134.1 610.2 140.4 612.3 L 141 612.3 C 142.2 615 143.7 618 144.9 621.3 C 135.6 617.4 126.6 613.5 117.6 609 L 117 609 C 117 608.7 117.3 608.4 117.3 608.1 C 118.2 604.2 123 600 126.9 597 L 126.9 597 Z  M 110.7 650.7 C 114.9 653.4 119.7 655.5 124.5 656.7 L 111.6 656.7 C 111.3 654.6 111 652.5 110.7 650.7 Z  M 479.7 656.7 C 470.4 651.3 462 645.3 455.1 637.5 C 455.4 632.7 455.7 628.2 456.3 624.3 C 464.7 635.7 475.5 645.9 487.8 652.5 C 488.4 652.8 489 651.9 488.4 651.6 C 476.4 643.2 465.9 634.2 456.6 623.1 L 456.3 623.1 C 456.9 618.9 457.5 615.3 458.4 612 C 465 621.6 473.7 631.2 484.2 636.6 C 484.8 636.9 485.4 636 484.8 635.7 C 474.9 628.2 466.2 621 459.3 610.5 C 459.3 610.2 459 610.2 459 610.2 C 459.6 607.5 460.2 605.1 461.1 603 C 465 607.5 469.2 612.3 474.3 615.6 C 474.9 615.9 475.5 615.3 474.9 614.7 C 470.7 610.2 465.9 606 461.7 601.5 C 463.5 596.4 465 593.1 465.9 591.3 C 471.9 595.2 483.9 610.5 486 617.7 C 487.8 623.4 488.7 645.6 489.3 656.7 L 479.7 656.7 L 479.7 656.7 Z  M 403.5 569.7 C 405.3 565.5 405.6 560.7 405.3 556.2 C 405.3 555.6 404.4 555.6 404.4 556.2 C 404.7 560.7 404.1 565.2 403.2 569.7 C 402.9 569.7 403.5 570 403.5 569.7 L 403.5 569.7 Z " fill="rgb(0,0,0)"/></g><g><g><g><path d=" M 188.7 244.2 C 188.7 244.2 179.7 230.1 170.4 227.4 C 170.4 227.4 150.6 233.7 152.1 250.8 C 153.9 267.9 178.2 307.5 199.8 309.9 C 218.4 312 196.5 254.4 188.7 244.2 Z " fill="rgb(255,255,255)"/><path d=" M 199.5 312.6 C 176.4 310.2 151.2 269.1 149.4 251.4 C 148.5 241.2 151.8 232.2 158.4 227.7 C 162.3 225 167.1 224.1 171.6 225.3 C 181.5 228 190.2 241.2 191.4 243 C 197.7 251.1 216.9 297 207.9 309 C 206.4 311.1 203.7 312.3 201 312.3 C 200.1 312.6 199.8 312.6 199.5 312.6 Z  M 161.7 231.3 C 156.6 234.6 154.2 242.1 154.8 250.5 C 156.3 266.7 180.3 305.4 199.8 307.2 C 201 307.2 201.9 307.2 202.5 306.3 C 208.8 297.6 192.9 254.7 186 245.4 L 186 245.1 C 183.6 241.5 176.1 231.3 169.5 229.5 C 168.9 229.2 168 229.2 167.4 229.2 C 165.3 229.8 163.5 230.4 161.7 231.3 L 161.7 231.3 Z " fill="rgb(0,0,0)"/><path d=" M 166.5 237.9 C 174.3 242.1 181.5 254.7 185.1 266.7 L 185.1 267 C 185.1 267.9 184.5 268.2 184.2 267.3 C 183 263.7 181.2 263.7 179.1 267.3 C 178.5 269.4 178.8 271.8 179.4 274.2 C 180 276.3 180.9 278.4 181.8 279.9 C 183.6 283.5 186 285.9 188.1 288.9 C 188.7 289.8 188.1 291 187.5 290.4 C 182.7 287.4 175.8 276.6 177.3 267.6 C 177.9 263.4 180.6 261 182.7 262.5 C 180 256.2 177 250.8 173.1 246.3 C 171 243.9 166.2 238.2 163.8 239.4 C 159.3 241.2 161.7 253.2 162.3 258.6 C 162.3 259.5 161.7 259.8 161.4 258.9 C 158.4 250.2 158.1 233.4 166.5 237.9 L 166.5 237.9 Z " fill="rgb(0,0,0)"/><path d=" M 185.7 293.4 C 177.3 290.7 171.3 279.6 167.7 267 C 165.6 259.5 161.4 242.1 169.5 242.4 C 170.1 242.4 170.4 243.9 169.8 244.2 C 162.3 247.5 170.4 270.9 172.8 276.3 C 176.1 284.1 180.3 289.2 185.7 291.9 C 186.3 292.5 186.3 293.7 185.7 293.4 Z " fill="rgb(0,0,0)"/></g></g><g><g><path d=" M 411.3 244.2 C 411.3 244.2 420.3 230.1 429.6 227.4 C 429.6 227.4 449.4 233.7 447.9 250.8 C 446.1 267.9 421.8 307.5 400.2 309.9 C 381.6 312 403.5 254.4 411.3 244.2 L 411.3 244.2 Z " fill="rgb(255,255,255)"/><path d=" M 399.3 312.6 C 396.3 312.6 393.9 311.4 392.4 309.3 C 383.7 297.3 402.6 251.4 408.9 243.3 C 410.1 241.5 418.8 228 428.7 225.6 C 433.2 224.4 437.7 225.3 441.9 228 C 448.5 232.5 451.8 241.2 450.9 251.7 C 449.1 269.4 423.9 310.5 400.8 312.9 C 400.2 312.6 399.9 312.6 399.3 312.6 L 399.3 312.6 Z  M 432.6 229.8 C 432 229.8 431.1 229.8 430.5 230.1 C 423.9 231.9 416.4 241.8 414 245.7 L 414 246 C 406.8 255 390.9 298.2 397.5 306.9 C 398.1 307.8 398.7 308.1 400.2 307.8 C 419.7 305.7 443.7 267 445.2 251.1 C 446.1 242.4 443.4 235.2 438.3 231.9 C 436.5 230.4 434.7 229.8 432.6 229.8 L 432.6 229.8 Z " fill="rgb(0,0,0)"/><path d=" M 433.5 237.9 C 425.7 242.1 418.5 254.7 414.9 266.7 L 414.9 267 C 414.9 267.9 415.5 268.2 415.8 267.3 C 417 263.7 418.8 263.7 420.9 267.3 C 421.5 269.4 421.2 271.8 420.6 274.2 C 420 276.3 419.1 278.4 418.2 279.9 C 416.4 283.5 414 285.9 411.9 288.9 C 411.3 289.8 411.9 291 412.5 290.4 C 417.3 287.4 424.2 276.6 422.7 267.6 C 422.1 263.4 419.4 261 417.3 262.5 C 420 256.2 423 250.8 426.9 246.3 C 429 243.9 433.8 238.2 436.2 239.4 C 440.7 241.2 438.3 253.2 437.7 258.6 C 437.7 259.5 438.3 259.8 438.6 258.9 C 441.6 250.2 441.9 233.4 433.5 237.9 L 433.5 237.9 Z " fill="rgb(0,0,0)"/><path d=" M 414.3 293.4 C 422.7 290.7 428.7 279.6 432.3 267 C 434.4 259.5 438.6 242.1 430.5 242.4 C 429.9 242.4 429.6 243.9 430.2 244.2 C 437.7 247.5 429.6 270.9 427.2 276.3 C 423.9 284.1 419.7 289.2 414.3 291.9 C 413.7 292.5 413.7 293.7 414.3 293.4 Z " fill="rgb(0,0,0)"/></g></g><g><g><path d=" M 414.6 174.6 C 408.6 142.2 374.7 92.4 303 92.4 C 231.3 92.4 207.3 130.5 196.5 159 C 187.5 183.3 187.5 222.9 187.5 222.9 C 187.5 222.9 188.7 308.1 217.5 361.2 C 245.4 412.2 304.2 456.6 356.1 396.6 C 420.6 322.2 417.9 223.2 417.9 223.2 C 417.9 223.2 418.8 197.7 414.6 174.6 L 414.6 174.6 Z " fill="rgb(255,255,255)"/><path d=" M 302.1 429.3 C 299.7 429.3 297.6 429.3 295.2 429 C 259.8 425.1 230.1 392.4 214.2 363 C 185.4 309.9 183.6 226.5 183.6 222.9 C 183.6 221.1 183.6 182.1 192.9 157.5 C 210.3 111 246.3 88.5 303 88.5 C 335.7 88.5 364.5 98.7 386.1 118.5 C 402.6 133.5 414.9 154.2 418.5 174 C 422.7 196.8 422.1 221.1 422.1 223.2 C 422.1 225.3 422.4 249.6 415.2 282.9 C 408.3 314.4 393 360.3 359.1 399.3 C 341.7 419.1 322.5 429.3 302.1 429.3 L 302.1 429.3 Z  M 303 96.3 C 249.9 96.3 216.3 117.3 200.1 160.2 C 191.4 183.6 191.4 222.6 191.4 222.9 C 191.4 223.8 192.9 307.8 221.1 359.4 C 236.1 387 263.7 417.9 296.1 421.2 C 316.5 423.3 336 414.3 353.4 393.9 C 416.1 321.6 414.3 224.1 414.3 222.9 C 414.3 222.6 414.9 197.7 410.7 175.2 C 407.4 157.2 396.3 138 380.7 124.2 C 360.9 105.9 333.9 96.3 303 96.3 L 303 96.3 Z " fill="rgb(0,0,0)"/></g></g><g><g><path d=" M 344.31 359.49 C 340.92 360.81 337.47 361.11 333.99 360.99 C 328.41 358.02 322.47 354.96 316.11 354.3 C 309.36 353.61 303 357.84 296.46 356.1 C 291.6 354.81 287.97 352.89 282.87 354.24 C 275.22 356.25 268.65 362.97 260.28 359.64 C 260.04 359.55 259.86 359.58 259.71 359.67 C 259.08 359.43 258.48 359.19 257.85 358.89 C 256.86 358.41 256.02 359.88 256.98 360.36 C 259.44 361.59 261.9 362.16 264.39 362.4 C 264.42 362.43 264.39 362.46 264.45 362.49 C 284.58 380.55 314.88 379.68 335.4 362.7 C 338.52 362.73 341.64 362.37 344.73 361.14 C 345.78 360.75 345.33 359.1 344.31 359.49 L 344.31 359.49 Z  M 294.03 357.06 C 298.92 358.68 301.98 358.23 306.87 356.97 C 315.18 354.81 322.35 357.15 329.52 360.66 C 321.51 359.76 313.5 357.78 305.76 361.68 C 302.64 363.24 302.16 363.66 298.08 363.63 C 293.91 363.6 293.67 363.06 290.49 361.59 C 288.42 360.66 286.38 360.12 284.13 359.88 C 280.35 359.49 276.63 360 272.94 360.42 C 280.56 357.3 285.48 354.24 294.03 357.06 L 294.03 357.06 Z  M 267.18 362.49 C 270.66 362.49 274.2 361.95 277.89 361.65 C 283.83 361.17 287.85 362.61 293.1 365.04 C 295.2 366 296.91 366.75 299.28 366.48 C 303.18 366 306.36 362.82 310.02 361.65 C 314.88 360.06 320.13 360.9 325.05 361.62 C 327.66 362.01 330.24 362.4 332.79 362.58 C 313.53 377.46 286.11 378.18 267.18 362.49 L 267.18 362.49 Z " fill="rgb(0,0,0)"/></g></g><g><g><g><g><g><path d=" M 255 254.4 C 252 248.7 245.4 246.3 239.4 248.4 C 232.8 250.8 228 257.4 230.1 264.6 C 231.3 268.2 234.6 271.8 238.5 272.7 C 240 273 241.5 273 243 273 C 244.5 273.3 246.3 273 248.1 272.4 C 255.3 269.7 258.6 261.3 255 254.4 Z " fill="rgb(255,255,255)"/><path d=" M 250.2 257.4 C 250.2 257.1 250.2 257.1 249.9 257.1 C 248.1 253.8 243.9 252.6 240.6 254.1 C 241.2 254.7 241.8 255.6 242.4 256.2 C 243 257.1 243.9 259.2 242.7 259.8 C 241.5 260.4 239.7 259.8 238.8 259.2 C 238.2 258.9 237.9 258.3 237.3 257.7 C 237.3 258 237 258 237 258.3 C 236.7 258.9 236.7 259.5 236.7 260.1 C 236.1 262.2 236.7 264.3 238.2 265.8 C 238.8 266.4 239.7 266.7 240.6 267 C 242.4 267.9 244.2 268.2 246 267.3 C 245.7 267 245.4 266.7 245.4 266.1 C 245.4 265.2 246 264.3 246.9 264 C 247.8 263.7 248.7 264 249 264.6 C 249.9 263.7 250.5 262.5 250.8 261.3 C 251.4 260.4 251.1 258.6 250.2 257.4 L 250.2 257.4 Z  M 244.2 273.3 L 243 273.3 C 241.5 273.3 240 273.3 238.8 273 C 234.9 272.1 231.6 268.8 230.1 264.6 C 227.7 257.1 232.8 250.2 239.4 248.1 C 245.7 245.7 252.6 248.4 255.6 254.1 C 257.4 257.4 257.7 261.6 256.2 265.2 C 254.7 268.8 252 271.5 248.4 272.7 C 246.9 273.3 245.4 273.3 244.2 273.3 L 244.2 273.3 Z  M 243 272.4 C 244.8 272.7 246.3 272.4 247.8 271.8 C 251.1 270.6 253.8 268.2 255 264.6 C 256.2 261.3 256.2 257.7 254.4 254.4 C 251.7 249 245.1 246.6 239.4 248.7 C 233.1 250.8 228.3 257.4 230.4 264.3 C 231.6 268.2 234.9 271.2 238.5 272.1 C 240 272.4 241.5 272.4 243 272.4 L 243 272.4 Z " fill="rgb(0,0,0)"/></g></g></g><g><path d=" M 243.06 223.29 C 222.36 223.29 205.56 240.09 205.56 260.79 C 205.56 281.49 222.36 298.29 243.06 298.29 C 263.76 298.29 280.56 281.49 280.56 260.79 C 280.56 240.09 263.76 223.29 243.06 223.29 Z  M 263.82 273.99 C 262.62 273.45 258.99 274.53 249.21 274.26 C 239.43 273.99 229.35 271.32 221.46 266.76 C 213.54 262.2 211.53 251.07 211.53 251.07 C 211.53 251.07 222.66 248.91 237.54 249.45 C 252.42 249.99 260.49 255.21 263.16 259.65 C 265.83 264.09 268.65 272.94 268.65 272.94 C 268.5 274.65 265.02 274.53 263.82 273.99 Z " fill="rgb(255,255,255)"/><path d=" M 271.35 276.87 C 272.46 271.65 272.37 265.86 270.12 261.06 C 269.85 260.49 268.95 260.79 268.98 261.36 C 269.1 264.03 269.22 266.58 269.22 269.13 C 267.33 263.73 264.06 256.71 259.14 252.9 C 253.77 248.76 241.5 247.14 229.89 247.35 C 229.659 247.08 229.34 246.9 228.99 246.84 C 220.38 245.37 219.78 241.35 219.78 241.32 C 219.76 240.883 219.564 240.474 219.235 240.185 C 218.907 239.896 218.476 239.754 218.04 239.79 C 217.14 239.85 216.45 240.6 216.51 241.53 C 216.51 241.74 216.81 245.25 221.58 247.86 C 220.32 247.98 219.06 248.13 217.89 248.31 C 208.02 248.34 205.68 243.36 205.56 243.15 C 205.195 242.34 204.258 241.957 203.43 242.28 C 202.59 242.64 202.2 243.57 202.56 244.41 C 202.65 244.62 204.21 248.16 209.7 250.08 L 209.4 250.17 L 209.01 250.35 C 208.8 250.47 203.7 253.74 198 249.75 C 197.254 249.236 196.234 249.424 195.72 250.17 C 195.206 250.916 195.394 251.936 196.14 252.45 C 203.07 257.28 209.4 253.95 210.63 253.2 C 210.9 253.11 211.17 253.05 211.44 252.96 C 211.17 253.32 211.05 253.77 211.17 254.25 C 211.38 255.24 216.21 276.12 250.95 276.12 C 254.82 276.12 259.08 275.85 263.76 275.28 C 264.66 275.16 265.29 274.35 265.17 273.45 C 265.116 273.019 264.893 272.628 264.549 272.363 C 264.205 272.099 263.77 271.982 263.34 272.04 C 220.08 277.41 214.56 254.55 214.35 253.56 C 214.245 253.058 213.896 252.641 213.42 252.45 C 226.5 249.36 250.29 250.2 257.22 255.54 C 264.81 261.39 268.17 276.99 268.23 277.17 C 268.29 277.47 268.47 277.74 268.68 277.95 L 268.59 278.61 C 268.32 280.08 270.45 280.71 270.87 279.24 C 271.05 278.64 271.2 278.04 271.32 277.44 C 271.32 277.23 271.35 277.05 271.35 276.87 L 271.35 276.87 Z " fill="rgb(0,0,0)"/></g></g></g><g><g><g><g><g><path d=" M 370.2 254.4 C 367.2 248.7 360.6 246.3 354.6 248.4 C 348 250.8 343.2 257.4 345.3 264.6 C 346.5 268.2 349.8 271.8 353.7 272.7 C 354.9 273 356.4 273 357.9 273 C 359.4 273.3 361.2 273 363 272.4 C 370.5 269.7 373.8 261.3 370.2 254.4 L 370.2 254.4 Z " fill="rgb(255,255,255)"/><path d=" M 365.4 257.4 C 365.4 257.1 365.4 257.1 365.1 257.1 C 363.3 253.8 359.1 252.6 355.8 254.1 C 356.4 254.7 357 255.6 357.6 256.2 C 358.2 257.1 359.1 259.2 357.9 259.8 C 356.7 260.4 354.9 259.8 354 259.2 C 353.4 258.9 353.1 258.3 352.5 257.7 C 352.5 258 352.2 258 352.2 258.3 C 351.9 258.9 351.9 259.5 351.9 260.1 C 351.3 262.2 351.9 264.3 353.4 265.8 C 354 266.4 354.9 266.7 355.8 267 C 357.6 267.9 359.4 268.2 361.2 267.3 C 360.9 267 360.6 266.7 360.6 266.1 C 360.6 265.2 361.2 264.3 362.1 264 C 363 263.7 363.9 264 364.2 264.6 C 365.1 263.7 365.7 262.5 366 261.3 C 366.6 260.4 366 258.6 365.4 257.4 L 365.4 257.4 Z  M 359.1 273.3 L 357.9 273.3 C 356.4 273.3 354.9 273.3 353.7 273 C 349.8 272.1 346.5 268.8 345 264.6 C 342.6 257.1 347.7 250.2 354.3 248.1 C 360.6 245.7 367.5 248.4 370.5 254.1 C 372.3 257.4 372.6 261.6 371.1 265.2 C 369.6 268.8 366.9 271.5 363.3 272.7 C 361.8 273.3 360.6 273.3 359.1 273.3 L 359.1 273.3 Z  M 358.2 272.4 C 360 272.7 361.5 272.4 363 271.8 C 366.3 270.6 369 268.2 370.2 264.6 C 371.4 261.3 371.4 257.7 369.6 254.4 C 366.9 249 360.3 246.6 354.6 248.7 C 348.3 250.8 343.5 257.4 345.6 264.3 C 346.8 268.2 350.1 271.2 353.7 272.1 C 355.2 272.4 356.7 272.4 358.2 272.4 L 358.2 272.4 Z " fill="rgb(0,0,0)"/></g></g></g><g><path d=" M 356.94 223.29 C 336.24 223.29 319.44 240.09 319.44 260.79 C 319.44 281.49 336.24 298.29 356.94 298.29 C 377.64 298.29 394.44 281.49 394.44 260.79 C 394.44 240.09 377.67 223.29 356.94 223.29 L 356.94 223.29 Z  M 377.73 267.51 C 369.81 272.07 359.76 274.74 349.98 275.01 C 340.2 275.28 336.57 274.2 335.37 274.74 C 334.17 275.28 330.69 275.4 330.54 273.66 C 330.54 273.66 333.36 264.81 336.03 260.37 C 338.7 255.93 346.77 250.71 361.65 250.17 C 376.53 249.63 387.66 251.79 387.66 251.79 C 387.66 251.79 385.65 262.95 377.73 267.51 L 377.73 267.51 Z " fill="rgb(255,255,255)"/><path d=" M 403.5 250.92 C 403.254 250.562 402.875 250.316 402.447 250.237 C 402.019 250.158 401.578 250.253 401.22 250.5 C 395.52 254.46 390.42 251.22 390.21 251.1 L 389.82 250.92 L 389.52 250.83 C 394.98 248.91 396.57 245.37 396.66 245.16 C 396.989 244.332 396.605 243.391 395.79 243.03 C 395.393 242.858 394.943 242.853 394.542 243.016 C 394.141 243.18 393.823 243.499 393.66 243.9 C 393.57 244.11 391.23 249.09 381.33 249.06 C 380.13 248.88 378.9 248.73 377.64 248.61 C 382.41 246 382.71 242.46 382.71 242.28 C 382.77 241.38 382.08 240.6 381.18 240.54 C 380.744 240.504 380.313 240.646 379.985 240.935 C 379.656 241.224 379.46 241.633 379.44 242.07 C 379.44 242.1 378.84 246.12 370.23 247.59 C 369.87 247.65 369.57 247.86 369.33 248.1 C 357.72 247.89 345.45 249.51 340.08 253.65 C 331.56 260.22 328.02 276.48 327.87 277.17 C 327.69 278.07 328.26 278.91 329.13 279.12 C 330.007 279.296 330.862 278.734 331.05 277.86 C 331.08 277.71 334.47 262.08 342.06 256.23 C 348.99 250.89 372.78 250.05 385.86 253.14 C 385.41 253.35 385.02 253.74 384.93 254.25 C 384.72 255.24 379.2 278.1 335.94 272.73 C 335.048 272.623 334.234 273.25 334.11 274.14 C 333.99 275.04 334.65 275.85 335.52 275.97 C 340.2 276.54 344.46 276.81 348.33 276.81 C 383.07 276.81 387.9 255.93 388.11 254.94 C 388.194 254.491 388.097 254.028 387.84 253.65 C 388.11 253.74 388.38 253.8 388.65 253.89 C 389.88 254.64 396.21 257.97 403.14 253.14 C 403.83 252.69 404.01 251.67 403.5 250.92 L 403.5 250.92 Z " fill="rgb(0,0,0)"/></g></g></g><g><g><g><path d=" M 200.07 230.46 C 200.67 229.98 215.04 218.37 222.18 217.59 C 229.32 216.81 271.95 228.06 274.77 232.56 C 276.03 234.6 276.3 236.19 275.55 237.33 C 274.92 238.26 273.72 238.71 271.92 238.71 C 270.75 238.71 269.28 238.53 267.57 238.14 C 264.72 237.51 256.98 234.75 248.79 231.84 C 237.75 227.91 225.27 223.47 222.21 223.26 C 217.92 222.93 205.5 229.53 201.09 232.08 C 200.67 232.32 200.13 232.2 199.86 231.78 C 199.586 231.35 199.676 230.784 200.07 230.46 Z " fill="rgb(0,0,0)"/></g></g></g><g><g><g><path d=" M 399.93 230.46 C 399.33 229.98 384.96 218.37 377.82 217.59 C 370.68 216.81 328.05 228.06 325.23 232.56 C 323.97 234.6 323.7 236.19 324.45 237.33 C 325.08 238.26 326.28 238.71 328.08 238.71 C 329.25 238.71 330.72 238.53 332.43 238.14 C 335.28 237.51 343.02 234.75 351.21 231.84 C 362.25 227.91 374.73 223.47 377.79 223.26 C 382.08 222.93 394.5 229.53 398.91 232.08 C 399.33 232.32 399.87 232.2 400.14 231.78 C 400.41 231.33 400.32 230.76 399.93 230.46 Z " fill="rgb(0,0,0)"/></g></g></g><g><g><path d=" M 289.5 271.5 C 283.8 284.7 279 297.9 275.4 312 C 274.2 316.8 273.3 322.2 278.1 325.2 C 280.2 326.4 282.3 326.1 284.7 326.4 C 288.9 326.7 291 329.7 294 332.1 C 297.3 335.1 301.2 336.3 305.1 333.6 C 307.2 332.1 308.7 329.4 310.8 327.9 C 313.5 326.1 316.8 326.7 319.2 324.9 C 327.9 318.9 320.1 306.6 315.9 300.3 C 314.7 298.8 312.3 300.3 313.5 301.8 C 315.9 305.1 318 308.7 319.5 312.3 C 320.4 314.4 320.7 316.8 320.1 319.2 C 318.9 322.8 315.9 323.4 312.9 324 C 309.3 324.9 307.5 327.3 304.8 330 C 299.4 335.4 295.5 328.5 291.3 325.2 C 290.1 324.3 288.9 323.7 287.1 323.4 C 284.7 323.1 282 323.7 279.9 322.5 C 276.3 320.1 277.8 315.6 278.4 312.3 C 279 309.6 279.6 306.9 280.5 304.2 C 283.5 293.4 287.7 282.9 292.2 272.7 C 292.5 271.2 290.1 269.7 289.5 271.5 Z " fill="rgb(0,0,0)"/></g></g><g><path d=" M 322.11 119.61 C 322.11 119.61 304.26 175.32 257.1 186.75 C 257.1 186.75 183.51 222.48 197.1 279.63 C 197.1 279.63 171.39 240.33 173.52 191.76 C 175.65 143.19 209.94 66.03 324.96 85.32 C 324.96 85.32 368.55 80.31 404.25 124.62 C 439.95 168.93 429.24 241.77 406.38 292.5 C 406.38 292.5 419.94 222.48 389.25 208.2 C 358.56 193.92 318.54 168.18 322.11 119.61 Z " fill="rgb(255,255,255)"/><path d=" M 406.59 122.73 C 371.76 79.56 330.09 81.84 325.05 82.29 C 277.92 74.46 240 81.84 212.4 104.19 C 175.83 133.77 171.12 178.62 170.55 191.64 C 170.4 195.27 170.4 198.84 170.52 202.38 C 170.49 202.86 170.4 203.28 170.37 203.76 C 170.34 204.18 170.46 204.51 170.61 204.78 C 172.77 247.44 193.65 279.81 194.61 281.31 C 195.407 282.533 196.97 283.005 198.311 282.427 C 199.651 281.849 200.382 280.39 200.04 278.97 C 188.19 229.11 205.47 202.41 257.82 189.72 C 291.66 181.53 310.71 151.92 319.32 134.19 C 322.65 165.84 345.27 191.07 387.99 210.96 C 416.22 224.1 403.59 291.3 403.47 291.96 C 403.17 293.46 404.07 294.93 405.51 295.38 C 405.81 295.47 406.11 295.53 406.41 295.53 C 407.55 295.53 408.66 294.87 409.14 293.76 C 431.52 244.05 444.3 169.47 406.59 122.73 L 406.59 122.73 Z  M 422.25 227.52 C 416.7 213.21 403.26 202.23 389.52 194.1 C 374.91 185.43 359.91 177.84 348.48 164.88 C 339.09 154.23 332.73 141.75 329.01 128.28 C 349.14 162.39 417.96 165.57 423.9 211.32 C 423.57 216.69 423.03 222.09 422.25 227.52 Z  M 391.98 166.26 C 366.36 151.71 323.55 138.66 327.51 101.88 C 327.54 101.64 327.51 101.43 327.45 101.25 C 327.9 98.61 328.32 95.94 328.71 93.27 C 339.84 137.1 403.8 135.3 422.1 173.67 C 423.51 181.77 424.2 190.17 424.26 198.72 C 418.23 184.65 405.81 174.09 391.98 166.26 L 391.98 166.26 Z  M 401.94 126.51 C 410.52 137.13 416.34 149.67 419.88 163.32 C 395.58 132.78 338.1 131.58 331.47 88.26 C 344.43 88.77 375.51 93.75 401.94 126.51 Z  M 176.52 191.91 C 176.55 191.49 176.55 191.04 176.58 190.56 C 193.29 137.85 283.89 144.51 296.01 85.44 C 298.44 85.53 300.9 85.65 303.39 85.83 C 292.65 122.04 267.33 148.98 233.01 164.61 C 211.17 174.57 185.85 185.13 176.76 207.6 C 176.4 202.5 176.28 197.25 176.52 191.91 Z  M 263.55 151.23 C 284.91 134.76 299.82 111.81 307.29 86.07 C 309.96 86.31 312.66 86.61 315.39 86.97 C 312.15 105.3 308.61 124.5 298.62 140.49 C 285.21 161.94 262.11 170.73 239.73 179.67 C 214.56 189.72 186.78 204.03 180.66 231.54 C 179.52 226.92 178.56 222.03 177.84 216.96 C 184.74 178.26 236.61 171.99 263.55 151.23 L 263.55 151.23 Z  M 216.18 108.84 C 233.94 94.47 256.29 86.7 282.96 85.47 C 267.12 119.88 219.78 114.36 192.81 136.17 C 198.45 126.57 206.01 117.06 216.18 108.84 L 216.18 108.84 Z  M 186.81 148.02 C 210.54 114 269.34 126.81 287.04 85.35 C 288.75 85.32 290.46 85.26 292.23 85.29 C 280.38 138.63 202.8 136.98 177.87 178.92 C 179.22 170.43 181.8 159.48 186.81 148.02 Z  M 256.41 183.84 C 207.69 195.66 186.93 219.9 190.95 261.45 C 188.4 255.78 185.64 248.79 183.21 240.9 C 185.01 192.3 245.07 186.87 277.65 166.29 C 305.73 148.56 313.56 118.29 319.08 87.48 C 320.88 87.75 322.65 87.99 324.48 88.29 C 324.75 88.32 325.05 88.35 325.32 88.32 C 325.35 88.32 325.47 88.29 325.68 88.29 C 324.33 98.22 322.74 108.03 319.95 117.63 C 319.65 117.93 319.41 118.29 319.29 118.71 C 319.08 119.25 301.38 172.95 256.41 183.84 Z  M 390.54 205.47 C 347.31 185.37 325.8 159.84 324.96 127.62 C 330.15 147.54 341.16 165.51 357.51 178.53 C 378.03 194.88 416.91 206.67 420.96 235.47 C 418.86 247.14 415.86 258.69 412.11 269.73 C 413.43 247.23 411.36 215.16 390.54 205.47 Z " fill="rgb(0,0,0)"/></g><g/></g></g></g><g clip-path="url(#_clipPath_MDcYfQKWjIK5imnVnjY3bS4seRAgATAW)"><text transform="matrix(3,0,0,3,100.213,0)" style="font-family:'Roboto';font-weight:400;font-size:10px;font-style:normal;font-variant-ligatures:none;fill:#333333;stroke:none;">Created on AvatarMaker.com</text></g><defs><clipPath id="_clipPath_MDcYfQKWjIK5imnVnjY3bS4seRAgATAW"><rect x="0" y="0" width="131" height="11.719" transform="matrix(3,0,0,3,100.213,-27.832)"/></clipPath></defs></g></svg>