<?xml version="1.0" encoding="UTF-8" standalone="no"?><!-- Generator: Gravit.io --><svg xmlns="http://www.w3.org/2000/svg" xmlns:xlink="http://www.w3.org/1999/xlink" style="isolation:isolate" viewBox="0 0 76 76" width="76pt" height="76pt"><defs><clipPath id="_clipPath_nhP4V2ga0GYnQrez2GTZxt7YbeByFufV"><rect width="76" height="76"/></clipPath></defs><g clip-path="url(#_clipPath_nhP4V2ga0GYnQrez2GTZxt7YbeByFufV)"><g><path d=" M 0 0 L 76 0 L 76 76 L 0 76 L 0 0 Z " fill="none"/></g><path d=" M 9 11.853 C 7.348 11.853 6 13.201 6 14.853 L 6 50.853 C 6 52.505 7.348 53.853 9 53.853 L 32 53.853 L 32 57.853 L 29.656 57.853 C 28.32 57.853 27.066 58.373 26.121 59.318 L 23.293 62.146 C 22.84 62.146 22.444 62.45 22.327 62.888 C 22.21 63.325 22.401 63.786 22.793 64.013 C 23.185 64.239 23.68 64.174 24 63.853 L 52 63.853 C 52.404 63.853 52.769 63.61 52.924 63.236 C 53.078 62.863 52.993 62.432 52.707 62.146 L 49.879 59.318 C 48.944 58.377 47.671 57.85 46.344 57.853 L 44 57.853 L 44 53.853 L 67 53.853 C 68.652 53.853 70 52.505 70 50.853 L 70 14.853 C 70 13.201 68.652 11.853 67 11.853 L 9 11.853 Z  M 9 13.853 L 67 13.853 C 67.55 13.853 68 14.303 68 14.853 L 68 45.853 L 65 45.853 C 64.45 45.853 64 46.303 64 46.853 C 64 47.403 64.45 47.853 65 47.853 L 68 47.853 L 68 50.853 C 68 51.403 67.55 51.853 67 51.853 L 9 51.853 C 8.45 51.853 8 51.403 8 50.853 L 8 47.853 L 45.082 47.853 C 45.632 47.853 46.082 47.403 46.082 46.853 C 46.082 46.303 45.632 45.853 45.082 45.853 L 8 45.853 L 8 14.853 C 8 14.303 8.45 13.853 9 13.853 Z  M 11 15.853 C 10.45 15.853 10 16.303 10 16.853 C 10 17.403 10.45 17.853 11 17.853 L 57 17.853 C 57.55 17.853 58 17.403 58 16.853 C 58 16.303 57.55 15.853 57 15.853 L 11 15.853 Z  M 61 15.853 C 60.45 15.853 60 16.303 60 16.853 C 60 17.403 60.45 17.853 61 17.853 L 65 17.853 C 65.55 17.853 66 17.403 66 16.853 C 66 16.303 65.55 15.853 65 15.853 L 61 15.853 Z  M 50 44.853 C 49.45 44.853 49 45.303 49 45.853 L 49 47.853 C 49 48.403 49.45 48.853 50 48.853 C 50.55 48.853 51 48.403 51 47.853 L 51 45.853 C 51 45.303 50.55 44.853 50 44.853 Z  M 55 44.853 C 54.45 44.853 54 45.303 54 45.853 L 54 47.853 C 54 48.403 54.45 48.853 55 48.853 C 55.55 48.853 56 48.403 56 47.853 L 56 45.853 C 56 45.303 55.55 44.853 55 44.853 Z  M 60 44.853 C 59.45 44.853 59 45.303 59 45.853 L 59 47.853 C 59 48.403 59.45 48.853 60 48.853 C 60.55 48.853 61 48.403 61 47.853 L 61 45.853 C 61 45.303 60.55 44.853 60 44.853 Z  M 34 53.853 L 42 53.853 L 42 57.853 L 34 57.853 L 34 53.853 Z  M 29.656 59.853 L 46.344 59.853 C 47.133 59.853 47.906 60.173 48.464 60.732 L 49.587 61.853 L 26.414 61.853 L 27.535 60.732 C 28.099 60.172 28.861 59.856 29.656 59.853 Z " fill="rgb(0,0,0)"/><path d=" M 40 20 L 34 42 L 36 42 L 42 20 L 40 20 Z  M 29.937 21.406 L 23.187 30.406 L 22.75 31 L 23.188 31.594 L 29.938 40.594 L 31.563 39.406 L 25.25 31 L 31.563 22.594 L 29.937 21.406 Z  M 46.062 21.406 L 44.437 22.594 L 50.75 31 L 44.437 39.406 L 46.062 40.594 L 52.812 31.594 L 53.25 31 L 52.812 30.406 L 46.062 21.406 Z " fill="rgb(0,0,0)"/></g></svg>