<?xml version="1.0" encoding="UTF-8" standalone="no"?><!-- Generator: Gravit.io --><svg xmlns="http://www.w3.org/2000/svg" xmlns:xlink="http://www.w3.org/1999/xlink" style="isolation:isolate" viewBox="0 0 76 76" width="76pt" height="76pt"><defs><clipPath id="_clipPath_9RCSeUqKKG2sBX78i2s9ElGrnKgRcyPt"><rect width="76" height="76"/></clipPath></defs><g clip-path="url(#_clipPath_9RCSeUqKKG2sBX78i2s9ElGrnKgRcyPt)"><g><path d=" M 0 0 L 76 0 L 76 76 L 0 76 L 0 0 Z " fill="none"/></g><path d=" M 9 11.853 C 7.348 11.853 6 13.201 6 14.853 L 6 50.853 C 6 52.505 7.348 53.853 9 53.853 L 32 53.853 L 32 57.853 L 29.656 57.853 C 28.32 57.853 27.066 58.373 26.121 59.318 L 23.293 62.146 C 22.84 62.146 22.444 62.45 22.327 62.888 C 22.21 63.325 22.401 63.786 22.793 64.013 C 23.185 64.239 23.68 64.174 24 63.853 L 52 63.853 C 52.404 63.853 52.769 63.61 52.924 63.236 C 53.078 62.863 52.993 62.432 52.707 62.146 L 49.879 59.318 C 48.944 58.377 47.671 57.85 46.344 57.853 L 44 57.853 L 44 53.853 L 67 53.853 C 68.652 53.853 70 52.505 70 50.853 L 70 14.853 C 70 13.201 68.652 11.853 67 11.853 L 9 11.853 Z  M 9 13.853 L 67 13.853 C 67.55 13.853 68 14.303 68 14.853 L 68 45.853 L 65 45.853 C 64.45 45.853 64 46.303 64 46.853 C 64 47.403 64.45 47.853 65 47.853 L 68 47.853 L 68 50.853 C 68 51.403 67.55 51.853 67 51.853 L 9 51.853 C 8.45 51.853 8 51.403 8 50.853 L 8 47.853 L 45.082 47.853 C 45.632 47.853 46.082 47.403 46.082 46.853 C 46.082 46.303 45.632 45.853 45.082 45.853 L 8 45.853 L 8 14.853 C 8 14.303 8.45 13.853 9 13.853 Z  M 11 15.853 C 10.45 15.853 10 16.303 10 16.853 C 10 17.403 10.45 17.853 11 17.853 L 57 17.853 C 57.55 17.853 58 17.403 58 16.853 C 58 16.303 57.55 15.853 57 15.853 L 11 15.853 Z  M 61 15.853 C 60.45 15.853 60 16.303 60 16.853 C 60 17.403 60.45 17.853 61 17.853 L 65 17.853 C 65.55 17.853 66 17.403 66 16.853 C 66 16.303 65.55 15.853 65 15.853 L 61 15.853 Z  M 50 44.853 C 49.45 44.853 49 45.303 49 45.853 L 49 47.853 C 49 48.403 49.45 48.853 50 48.853 C 50.55 48.853 51 48.403 51 47.853 L 51 45.853 C 51 45.303 50.55 44.853 50 44.853 Z  M 55 44.853 C 54.45 44.853 54 45.303 54 45.853 L 54 47.853 C 54 48.403 54.45 48.853 55 48.853 C 55.55 48.853 56 48.403 56 47.853 L 56 45.853 C 56 45.303 55.55 44.853 55 44.853 Z  M 60 44.853 C 59.45 44.853 59 45.303 59 45.853 L 59 47.853 C 59 48.403 59.45 48.853 60 48.853 C 60.55 48.853 61 48.403 61 47.853 L 61 45.853 C 61 45.303 60.55 44.853 60 44.853 Z  M 34 53.853 L 42 53.853 L 42 57.853 L 34 57.853 L 34 53.853 Z  M 29.656 59.853 L 46.344 59.853 C 47.133 59.853 47.906 60.173 48.464 60.732 L 49.587 61.853 L 26.414 61.853 L 27.535 60.732 C 28.099 60.172 28.861 59.856 29.656 59.853 Z " fill="rgb(0,0,0)"/><path d=" M 34.963 19.854 C 34.859 19.852 34.758 19.893 34.685 19.967 C 34.537 20.118 34.537 20.359 34.685 20.509 C 34.836 20.658 35.078 20.658 35.228 20.509 C 35.376 20.359 35.376 20.118 35.228 19.967 C 35.158 19.897 35.063 19.856 34.963 19.854 Z  M 47.11 19.855 C 46.898 19.853 46.725 20.024 46.724 20.235 C 46.722 20.447 46.892 20.62 47.104 20.622 C 47.206 20.622 47.303 20.581 47.377 20.509 C 47.525 20.359 47.525 20.118 47.377 19.967 C 47.306 19.897 47.21 19.857 47.11 19.855 Z  M 41.031 20.563 C 38.073 20.563 35.666 22.97 35.666 25.929 C 35.666 27.752 36.411 28.842 37.11 29.592 C 37.461 29.966 37.793 30.265 38.017 30.538 C 38.241 30.809 38.348 31.023 38.348 31.294 L 38.348 33.593 C 38.348 34.436 39.038 35.126 39.881 35.126 L 40.371 35.126 C 40.504 35.354 40.748 35.509 41.031 35.509 C 41.314 35.509 41.558 35.354 41.691 35.126 L 42.181 35.126 C 43.024 35.126 43.713 34.436 43.713 33.593 L 43.713 31.294 C 43.713 31.023 43.821 30.809 44.044 30.538 C 44.269 30.266 44.601 29.966 44.951 29.592 C 45.651 28.842 46.396 27.752 46.396 25.929 C 46.396 22.97 43.989 20.563 41.031 20.563 Z  M 46.026 20.938 C 45.922 20.936 45.822 20.977 45.75 21.051 C 45.678 21.123 45.637 21.221 45.637 21.322 C 45.637 21.424 45.678 21.522 45.75 21.593 C 45.899 21.741 46.142 21.741 46.291 21.593 C 46.363 21.522 46.404 21.424 46.404 21.322 C 46.404 21.221 46.363 21.123 46.291 21.051 C 46.221 20.98 46.126 20.94 46.026 20.938 Z  M 36.047 20.939 C 35.943 20.937 35.843 20.978 35.769 21.051 C 35.621 21.201 35.621 21.443 35.769 21.593 C 35.919 21.743 36.163 21.743 36.312 21.593 C 36.46 21.443 36.46 21.201 36.312 21.051 C 36.242 20.981 36.147 20.941 36.048 20.939 L 36.047 20.939 Z  M 41.031 21.33 C 43.576 21.33 45.63 23.384 45.63 25.929 C 45.63 27.554 45.034 28.38 44.392 29.068 C 44.071 29.412 43.733 29.711 43.454 30.05 C 43.175 30.389 42.947 30.798 42.947 31.294 L 42.181 31.294 L 42.181 26.918 C 42.604 26.749 42.947 26.411 42.947 25.929 C 42.947 25.298 42.428 24.779 41.797 24.779 C 41.5 24.779 41.236 24.909 41.031 25.098 C 40.826 24.909 40.562 24.779 40.264 24.779 C 39.634 24.779 39.115 25.298 39.115 25.929 C 39.115 26.411 39.458 26.749 39.881 26.918 L 39.881 31.294 L 39.115 31.294 C 39.115 30.798 38.887 30.389 38.607 30.05 C 38.329 29.711 37.99 29.412 37.67 29.068 C 37.028 28.38 36.432 27.554 36.432 25.929 C 36.432 23.384 38.486 21.33 41.031 21.33 Z  M 47.437 23.051 C 47.384 23.051 47.333 23.06 47.287 23.08 C 47.101 23.167 47.017 23.385 47.095 23.574 C 47.174 23.764 47.387 23.859 47.58 23.789 C 47.775 23.707 47.868 23.484 47.787 23.288 C 47.728 23.146 47.59 23.053 47.437 23.051 Z  M 34.635 23.053 C 34.478 23.049 34.335 23.142 34.275 23.288 C 34.194 23.484 34.287 23.707 34.481 23.789 C 34.675 23.86 34.889 23.765 34.968 23.575 C 35.047 23.385 34.962 23.166 34.775 23.08 C 34.731 23.062 34.683 23.053 34.635 23.053 Z  M 32.6 25.545 C 32.389 25.545 32.216 25.718 32.216 25.929 C 32.216 26.139 32.389 26.312 32.6 26.312 C 32.81 26.312 32.983 26.139 32.983 25.929 C 32.983 25.718 32.81 25.545 32.6 25.545 Z  M 34.133 25.545 C 33.922 25.545 33.749 25.718 33.749 25.929 C 33.749 26.139 33.922 26.312 34.133 26.312 C 34.343 26.312 34.516 26.139 34.516 25.929 C 34.516 25.718 34.343 25.545 34.133 25.545 Z  M 40.264 25.545 C 40.481 25.545 40.648 25.712 40.648 25.929 L 41.414 25.929 C 41.414 25.712 41.58 25.545 41.797 25.545 C 42.014 25.545 42.181 25.712 42.181 25.929 C 42.181 26.145 42.014 26.312 41.797 26.312 L 41.414 26.312 L 41.414 31.294 L 40.648 31.294 L 40.648 26.312 L 40.264 26.312 C 40.047 26.312 39.881 26.145 39.881 25.929 C 39.881 25.712 40.047 25.545 40.264 25.545 Z  M 47.929 25.545 C 47.718 25.545 47.546 25.718 47.546 25.929 C 47.546 26.139 47.718 26.312 47.929 26.312 C 48.14 26.312 48.312 26.139 48.312 25.929 C 48.312 25.718 48.14 25.545 47.929 25.545 Z  M 49.462 25.545 C 49.251 25.545 49.079 25.718 49.079 25.929 C 49.079 26.139 49.251 26.312 49.462 26.312 C 49.673 26.312 49.845 26.139 49.845 25.929 C 49.845 25.718 49.673 25.545 49.462 25.545 Z  M 47.442 28.038 C 47.257 28.031 47.093 28.159 47.055 28.341 C 47.016 28.522 47.114 28.705 47.287 28.774 C 47.38 28.814 47.486 28.814 47.58 28.776 C 47.674 28.737 47.749 28.662 47.787 28.568 C 47.836 28.451 47.823 28.318 47.754 28.212 C 47.686 28.106 47.569 28.041 47.442 28.038 Z  M 34.631 28.038 C 34.502 28.037 34.382 28.101 34.31 28.208 C 34.239 28.315 34.225 28.451 34.274 28.569 C 34.349 28.746 34.542 28.841 34.727 28.791 C 34.912 28.742 35.032 28.563 35.008 28.372 C 34.984 28.182 34.823 28.039 34.631 28.038 Z  M 36.047 30.152 C 35.943 30.15 35.843 30.19 35.769 30.264 C 35.621 30.415 35.621 30.656 35.769 30.807 C 35.92 30.955 36.161 30.955 36.312 30.807 C 36.46 30.656 36.46 30.415 36.312 30.264 C 36.241 30.195 36.147 30.155 36.048 30.152 L 36.047 30.152 Z  M 46.027 30.152 C 45.871 30.15 45.729 30.242 45.668 30.386 C 45.607 30.53 45.639 30.696 45.749 30.807 C 45.9 30.956 46.141 30.956 46.291 30.807 C 46.401 30.698 46.435 30.535 46.377 30.391 C 46.319 30.248 46.181 30.154 46.027 30.152 Z  M 34.962 31.236 C 34.859 31.234 34.76 31.274 34.687 31.346 C 34.614 31.418 34.573 31.516 34.573 31.619 C 34.573 31.72 34.613 31.818 34.685 31.891 C 34.836 32.039 35.078 32.039 35.228 31.891 C 35.338 31.782 35.372 31.618 35.313 31.474 C 35.255 31.331 35.117 31.237 34.962 31.236 Z  M 47.11 31.236 C 46.936 31.233 46.781 31.348 46.734 31.517 C 46.687 31.685 46.76 31.864 46.911 31.952 C 47.062 32.04 47.253 32.015 47.377 31.891 C 47.525 31.74 47.525 31.499 47.377 31.348 C 47.306 31.277 47.21 31.237 47.11 31.236 L 47.11 31.236 Z  M 39.115 32.06 L 42.947 32.06 L 42.947 32.827 L 40.648 32.827 L 40.648 33.593 L 42.947 33.593 C 42.947 34.021 42.609 34.36 42.181 34.36 L 39.881 34.36 C 39.453 34.36 39.115 34.021 39.115 33.593 L 39.881 33.593 L 39.881 32.827 L 39.115 32.827 L 39.115 32.06 Z  M 30.3 32.827 C 29.936 32.828 29.575 32.894 29.235 33.023 C 29.222 33.025 29.238 33.017 29.194 33.031 L 29.205 33.027 C 28.375 33.279 24.45 34.373 24.45 34.373 C 24.313 34.405 24.205 34.51 24.169 34.646 C 24.131 34.781 24.171 34.926 24.272 35.023 C 24.373 35.121 24.52 35.155 24.654 35.113 C 24.654 35.113 28.492 34.044 29.4 33.768 C 29.428 33.764 29.454 33.757 29.48 33.747 C 30.127 33.496 30.853 33.554 31.452 33.904 C 31.465 33.914 31.48 33.92 31.494 33.925 L 31.503 33.93 C 33.917 35.071 38.823 37.526 38.835 37.533 L 38.838 37.533 C 38.814 37.521 38.817 37.523 38.863 37.553 L 38.889 37.569 C 39.253 37.765 39.498 38.136 39.498 38.575 C 39.498 38.796 39.434 39.012 39.314 39.196 C 38.977 39.72 38.324 39.831 37.715 39.538 C 37.708 39.535 37.7 39.532 37.694 39.527 L 37.432 39.421 C 37.304 39.364 37.155 39.382 37.044 39.467 C 36.933 39.552 36.877 39.69 36.898 39.828 C 36.918 39.967 37.012 40.083 37.143 40.132 L 37.404 40.238 L 37.382 40.228 C 38.154 40.599 39.096 40.515 39.697 39.929 L 40.115 40.214 C 40.222 40.288 40.359 40.302 40.479 40.252 L 46.766 37.653 L 46.606 37.334 C 46.696 37.515 46.912 37.594 47.098 37.515 C 47.24 37.455 47.392 37.425 47.546 37.426 C 48.185 37.426 48.695 37.936 48.695 38.575 C 48.695 39.012 48.451 39.382 48.092 39.58 C 47.917 39.675 47.846 39.889 47.927 40.071 L 47.784 39.748 L 40.228 43.758 C 40.241 43.752 40.23 43.757 40.212 43.762 C 40.194 43.768 40.176 43.774 40.16 43.783 C 39.954 43.885 39.728 43.939 39.498 43.941 C 39.272 43.941 39.059 43.888 38.862 43.797 C 38.853 43.794 38.844 43.789 38.835 43.786 C 38.806 43.776 38.802 43.773 38.821 43.783 L 29.3 39.755 C 29.214 39.719 29.118 39.715 29.03 39.744 L 24.431 41.277 C 24.238 41.35 24.137 41.562 24.202 41.758 C 24.267 41.953 24.475 42.062 24.673 42.005 L 29.134 40.517 L 38.513 44.484 C 38.571 44.511 38.583 44.511 38.57 44.505 C 38.849 44.631 39.164 44.707 39.498 44.707 C 39.859 44.707 40.195 44.617 40.492 44.473 C 40.514 44.466 40.535 44.462 40.564 44.446 C 40.568 44.445 40.573 44.442 40.576 44.441 L 48.458 40.258 C 48.521 40.224 48.574 40.172 48.61 40.109 C 49.104 39.765 49.462 39.225 49.462 38.575 C 49.462 37.521 48.6 36.659 47.546 36.659 C 47.336 36.659 47.141 36.716 46.953 36.779 L 46.951 36.779 C 46.901 36.778 46.85 36.789 46.803 36.809 L 40.377 39.465 L 40.061 39.25 C 40.149 39.032 40.264 38.824 40.264 38.575 C 40.264 37.848 39.85 37.216 39.253 36.894 L 39.279 36.91 C 39.293 36.918 39.267 36.894 39.199 36.857 C 39.195 36.855 39.192 36.853 39.188 36.852 C 39.188 36.852 34.258 34.382 31.821 33.233 C 31.819 33.231 31.816 33.23 31.814 33.228 C 31.805 33.224 31.796 33.221 31.787 33.218 C 31.333 32.962 30.821 32.828 30.3 32.827 Z  M 32.6 37.809 C 32.389 37.809 32.216 37.981 32.216 38.192 C 32.216 38.403 32.389 38.575 32.6 38.575 C 32.81 38.575 32.983 38.403 32.983 38.192 C 32.983 37.981 32.81 37.809 32.6 37.809 Z  M 33.749 38.192 C 33.539 38.192 33.366 38.364 33.366 38.575 C 33.366 38.786 33.539 38.958 33.749 38.958 C 33.96 38.958 34.133 38.786 34.133 38.575 C 34.133 38.364 33.96 38.192 33.749 38.192 Z  M 34.899 38.575 C 34.688 38.575 34.516 38.748 34.516 38.958 C 34.516 39.169 34.688 39.342 34.899 39.342 C 35.11 39.342 35.282 39.169 35.282 38.958 C 35.282 38.748 35.11 38.575 34.899 38.575 Z  M 36.049 38.958 C 35.838 38.958 35.666 39.131 35.666 39.342 C 35.666 39.552 35.838 39.725 36.049 39.725 C 36.26 39.725 36.432 39.552 36.432 39.342 C 36.432 39.131 36.26 38.958 36.049 38.958 Z " fill="rgb(0,0,0)"/></g></svg>