<?xml version="1.0" encoding="UTF-8" standalone="no"?><!-- Generator: Gravit.io --><svg xmlns="http://www.w3.org/2000/svg" xmlns:xlink="http://www.w3.org/1999/xlink" style="isolation:isolate" viewBox="0 0 76.129 75.83" width="76.129pt" height="75.83pt"><defs><clipPath id="_clipPath_oyjtnyvisnDOBNsf0BpSR3r4CwSQSTtO"><rect width="76.129" height="75.83"/></clipPath></defs><g clip-path="url(#_clipPath_oyjtnyvisnDOBNsf0BpSR3r4CwSQSTtO)"><path d=" M 0 37.918 C 0 27.421 3.723 18.487 11.168 11.09 C 18.609 3.688 27.563 0 38.065 0 C 48.597 0 57.571 3.693 64.996 11.09 C 72.422 18.487 76.129 27.421 76.129 37.918 C 76.129 48.374 72.422 57.293 64.996 64.71 C 57.571 72.127 48.597 75.83 38.065 75.83 C 27.563 75.83 18.609 72.127 11.168 64.71 C 3.723 57.293 0 48.374 0 37.918 Z " fill-rule="evenodd" fill="rgb(3,3,3)" class= "color"/><g clip-path="url(#_clipPath_OJPSm2J8lM3zdoCUPat05TVXuob7RNwH)"><text transform="matrix(1,0,0,1,15.565,55.689)" style="font-family:'Roboto';font-weight:700;font-size:52px;font-style:normal;fill:#ffffff;stroke:none;">in</text></g><defs><clipPath id="_clipPath_OJPSm2J8lM3zdoCUPat05TVXuob7RNwH"><rect x="0" y="0" width="45" height="60.938" transform="matrix(1,0,0,1,15.565,7.446)" /></clipPath></defs></g></svg>