<?xml version="1.0" encoding="UTF-8" standalone="no"?><!-- Generator: Gravit.io --><svg xmlns="http://www.w3.org/2000/svg" xmlns:xlink="http://www.w3.org/1999/xlink" style="isolation:isolate" viewBox="0 0 76.129 72.451" width="76.129pt" height="72.451pt"><defs><clipPath id="_clipPath_CbgUERBNXcDhSojUUVKRz2EX7qcDwpF8"><rect width="76.129" height="72.451"/></clipPath></defs><g clip-path="url(#_clipPath_CbgUERBNXcDhSojUUVKRz2EX7qcDwpF8)"><path d=" M 0 36.228 C 0 26.199 3.723 17.663 11.168 10.596 C 18.609 3.524 27.563 0 38.065 0 C 48.597 0 57.571 3.529 64.996 10.596 C 72.422 17.663 76.129 26.199 76.129 36.228 C 76.129 46.218 72.422 54.74 64.996 61.826 C 57.571 68.912 48.597 72.451 38.065 72.451 C 27.563 72.451 18.609 68.912 11.168 61.826 C 3.723 54.74 0 46.218 0 36.228 Z " fill-rule="evenodd" fill="rgb(3,3,3)"/><path d=" M 12.799 16.369 L 12.799 23.522 L 38.065 36.123 L 63.33 23.522 L 63.33 16.369 L 12.799 16.369 Z  M 12.799 27.527 L 12.799 54.172 L 63.33 54.172 L 63.33 27.525 L 38.065 40.126 L 12.799 27.527 Z " fill="rgb(255,255,255)"/></g></svg>