<?xml version="1.0" encoding="UTF-8" standalone="no"?><!-- Generator: Gravit.io --><svg xmlns="http://www.w3.org/2000/svg" xmlns:xlink="http://www.w3.org/1999/xlink" style="isolation:isolate" viewBox="0 0 76.129 75.83" width="76.129pt" height="75.83pt"><defs><clipPath id="_clipPath_Lh41TQt0DhxQGxGwNGUgsT4QecKsUViJ"><rect width="76.129" height="75.83"/></clipPath></defs><g clip-path="url(#_clipPath_Lh41TQt0DhxQGxGwNGUgsT4QecKsUViJ)"><path d=" M 0 37.918 C 0 27.421 3.723 18.487 11.168 11.09 C 18.609 3.688 27.563 0 38.065 0 C 48.597 0 57.571 3.693 64.996 11.09 C 72.422 18.487 76.129 27.421 76.129 37.918 C 76.129 48.374 72.422 57.293 64.996 64.71 C 57.571 72.127 48.597 75.83 38.065 75.83 C 27.563 75.83 18.609 72.127 11.168 64.71 C 3.723 57.293 0 48.374 0 37.918 Z " fill-rule="evenodd" fill="rgb(3,3,3)"/><path d=" M 33.591 69.137 L 31.992 69.137 C 29.938 69.137 28.515 68.698 27.743 67.81 C 26.972 66.916 26.586 65.289 26.586 62.928 C 26.586 56.37 28.991 53.096 33.801 53.096 L 35.344 53.096 C 33.626 56.245 32.764 59.639 32.764 63.293 C 32.764 65.339 33.044 67.301 33.591 69.137 Z " fill-rule="evenodd" fill="rgb(230,230,231)"/><path d=" M 45.35 65.444 C 42.349 67.266 38.927 68.488 35.084 69.132 C 34.643 67.161 34.412 65.199 34.412 63.293 C 34.412 60.073 35.274 56.679 36.993 53.096 L 37.719 53.096 C 41.036 53.096 42.685 48.115 42.685 38.142 C 42.685 27.826 41.021 22.665 37.699 22.665 L 36.978 22.665 C 34.994 19.256 33.996 15.917 33.996 12.628 C 33.996 10.616 34.362 8.64 35.084 6.698 C 38.616 7.277 42.038 8.5 45.355 10.372 C 46.933 14.584 48.126 18.956 48.918 23.538 C 49.709 28.12 50.095 32.882 50.095 37.828 C 50.095 42.884 49.709 47.71 48.918 52.312 C 48.126 56.889 46.933 61.281 45.355 65.444 L 45.35 65.444 Z " fill-rule="evenodd" fill="rgb(255,255,255)"/></g></svg>