<svg xmlns="http://www.w3.org/2000/svg" version="1.1" width="600px" height="600px" viewBox="0 0 200 200" style="overflow:hidden!important;"><g id="svga-group-wrapper"><g id="svga-group-backs-single"><path id="SvgjsPath10946" d="M0 0h200v200H0V0z" fill="#ecf0f1" stroke-width="none" opacity="1" stroke="none"></path></g><g id="svga-group-humanwrap-move" transform="matrix(1,0,0,1,0,0)"><g id="svga-group-humanwrap"><g id="svga-group-hair-back-move" transform="matrix(1,0,0,1,0,0)"><g id="svga-group-hair-back"><path id="SvgjsPath11156" d="M106.94 24.3S82.78 4.67 52.57 33.86s-1.01 74.5 4.03 84.57-5.79 22.15-13.59 18.88c0 0 4.03 10.32 16.11 7.8 0 0 5.54 4.28 12.84 1.51 0 0 4.28 7.55 17.12 4.03 0 0 6.8 6.29 17.12 1.76 0 0 13.34 4.53 19.88-.76 0 0 12.33 2.77 18.12-4.28 0 0 12.33 2.27 17.87-8.05 0 0-10.32 1.01-12.58-9.06-2.27-10.07 3.02-16.61 9.31-29.45s7.63-43.21-6.72-60.67C138 23.03 120.78 21.03 106.94 24.3z" fill="#ffffff" stroke-width="none" opacity="1"></path><path id="SvgjsPath11157" d="M161.96 138.33c-.39.03-9.46.82-11.51-8.29-1.74-7.73 1.21-13.35 5.68-21.85 1.14-2.17 2.31-4.4 3.56-6.94 6.69-13.64 7.34-44.48-6.85-61.75-15.98-19.44-35.29-18.63-45.67-16.28-3.35-2.4-26.93-17.49-55.29 9.92-28.04 27.11-6.24 67.17 1.97 82.25.76 1.4 1.42 2.6 1.86 3.49 2.75 5.51.28 11.15-2.68 14.32-2.95 3.15-6.73 4.41-9.63 3.19a.983.983 0 0 0-1.08.21.99.99 0 0 0-.23 1.08c.04.11 4.38 10.84 16.81 8.5 1.39.92 6.33 3.71 12.67 1.64 1.47 1.89 6.41 6.72 17.26 3.93 1.7 1.34 8.17 5.6 17.41 1.73 1.34.42 5.95 1.75 10.81 1.75 3.28 0 6.68-.6 9.27-2.5 2.35.44 12.66 1.94 18.28-4.29 2.61.3 13.24.87 18.35-8.64a1.003 1.003 0 0 0-.99-1.47zm-35.68 12.35h-.02c-8.79-14.39-6.01-29.95 2.94-43.53 7.69-11.65 15.47-22.65 17.27-36.9 1.48-11.68-1.38-24.28-9.42-33.15-7.63-8.42-19.33-12.32-30.4-9.51-.78.2-.45 1.4.33 1.21 14.01-3.56 27.96 4.17 34.33 16.77 6.95 13.75 4.71 29.92-1.98 43.29-5.44 10.87-14.63 19.83-18.29 31.59-3.22 10.34-1.51 21.51 4.03 30.7-6.17 4.46-18.46.37-18.59.33a.86.86 0 0 0-.32-.05c-.14 0-.27.03-.4.08-9.56 4.2-15.78-1.34-16.03-1.58a.983.983 0 0 0-.94-.23c-9.6 2.64-14.02-1.15-15.45-2.83 19.14-18.95-7.66-49.08-15.14-67.15-5.88-14.2-5.58-29.87 5.1-41.76 10.02-11.16 26.18-14.06 39.85-8.51.74.3 1.07-.91.33-1.21-23.15-9.4-49.66 6.65-50.6 32.05-.51 14.29 7.37 27.01 14.22 38.95 7.52 13.09 18.3 33.52 5.47 46.6a.988.988 0 0 0-.98-.16c-6.66 2.52-11.66-1.21-11.87-1.37-.04-.03-.09-.04-.13-.06 9.1-4.79 10.11-16.67 6.76-25.9-2.5-6.88-6.88-12.89-10.48-19.21-4.19-7.36-7.76-15.14-9.67-23.42-3.66-15.89-.1-32.51 12.3-43.64 12.69-11.4 31.22-13.18 46.26-5.51.13.21.36.35.67.29 13.89-2.92 28.34.72 37.68 11.81 10.11 12 10.67 27.28 6.25 41.76-6.36 20.83-22.78 46.64-6.54 66.96-5.55 5.65-16.43 3.31-16.54 3.29zm18.09-4.29c-.23-.04-.47.01-.67.12-20.55-25.64 11.36-57.88 9.71-85.41-.67-11.08-6.17-21.72-14.87-28.63-9.34-7.42-21.53-9.2-32.99-6.9l-.03-.03C81.36 13.16 50.88 26.11 44.65 53c-3.42 14.76 1.17 29.85 8.02 42.9 4.12 7.85 9.87 15.12 12.74 23.57 3.15 9.26 1.75 21.37-8.96 24.75-.16.05-.27.15-.34.27-6.23.27-9.63-3.34-11.16-5.67 3.19.32 6.67-1.2 9.53-4.26 3.4-3.63 6.22-10.15 3.01-16.58-.46-.92-1.12-2.14-1.89-3.55-8.01-14.71-29.29-53.8-2.34-79.85 29.18-28.2 52.08-10.28 53.04-9.51.24.19.56.27.86.2 11.98-2.83 29.38-2.45 44.12 15.5 13.69 16.67 13.05 46.43 6.6 59.6-1.23 2.51-2.4 4.74-3.53 6.89-4.51 8.58-7.76 14.77-5.86 23.22 1.82 8.08 8.5 9.58 11.79 9.82-5.41 7.89-15.47 6.17-15.91 6.09z" fill="#000000" stroke-width="none" opacity="1"></path></g></g><g id="svga-group-humanbody-back"><path id="SvgjsPath10967" d="M86.5 122c0 18.8 2.7 50.3-8.1 58s-31.8 13.9-36.7 24.4-3.6 14.4-3.6 14.4h124.1s.6-8.1-4.2-15.4c-6.6-10.1-28.5-17.7-36.5-22.9-8.1-5.2-10.9-32.2-10.9-58.8l-24.1.3z" fill="#ffffff" stroke-width="none" opacity="1"></path></g><g id="svga-group-chinshadow-single"></g><g id="svga-group-humanbody-front"><path id="SvgjsPath10968" d="M163.4 220.1H37.2l-.3-.9c-.1-.5-1.3-4.7 3.6-15.3 3.4-7.3 13.6-12.4 23.5-17.4 5.1-2.5 9.9-5 13.6-7.5 8.6-6 8.1-29.8 7.7-47.1-.1-3.5-.1-6.8-.1-9.8v-1.3l26.7-.4v1.3c0 32 3.8 53.5 10.3 57.7 2.4 1.6 6 3.3 10.2 5.4 9.7 4.7 21.9 10.6 26.7 18 5 7.6 4.4 15.9 4.4 16.2l-.1 1.1zm-124.1-2.6h121.6c-.1-2.4-.6-8.2-4-13.4-4.4-6.7-16.2-12.5-25.6-17-4.3-2.1-8-3.9-10.5-5.5-9.8-6.3-11.4-38.8-11.5-58.6l-21.5.4c0 2.6.1 5.5.1 8.5.4 18.9.9 42.4-8.8 49.3-3.8 2.7-8.7 5.1-13.9 7.7-9.5 4.8-19.4 9.7-22.3 16.1-3.3 6.9-3.7 10.9-3.6 12.5z" fill="#000000" stroke-width="none" opacity="1"></path><path id="SvgjsPath10969" d="M76.8 188.7c4.8 2.3 10.4 3.9 15.7 2.9.4-.1.4-.7 0-.8-5.1-.9-10.2-1.4-15.2-3.2-.6-.2-1.1.8-.5 1.1z" fill="#000000" stroke-width="none" opacity="1"></path><path id="SvgjsPath10970" d="M108.3 191.1c2.4.3 4.9-.4 7.1-1.2 2.1-.8 4.3-1.7 5.8-3.4.5-.5-.1-1.2-.7-.9-2.1.9-3.9 2.3-6.1 3-2 .7-4.1 1-6.2 1.5-.6.1-.4.9.1 1z" fill="#000000" stroke-width="none" opacity="1"></path></g><g id="svga-group-clothes-single"><path id="SvgjsPath11089" d="M85.2 163.9s-6.4 0-8.1 1.6-6.3 1.9-8.1 7.7c0 0-4.8 5.8-4.5 9l-4.7 5.1s-8.5 3.1-11 4.5c-2.4 1.4-5.6 5.1-5.6 5.1s-4.3 2.7-5.3 5.3c-1 2.6-3.4 10.3-1.6 17.5H164s-.3-11.6-1.1-14.3c-.8-2.7-5.8-9.3-8.1-9.8 0 0-7.1-6.3-9-7.1s-6.9-2.4-6.9-2.4-5-3.4-6.8-6.9c-.3-.6-4.8-7.9-6.1-8.7 0 0-.5-2.1-3.7-4.5s-8.4-2.9-8.4-2.9.6 2.4 1.3 6.4c.6 4 1 6.6-.2 9.3-1.1 2.7-4.8 5.5-7.6 8.5s-4.5 4.5-6 8.1c0 0-6.3-6.1-10.9-8.4s-6.4-4.2-7.2-7.2c-.7-2.9 1.9-15.9 1.9-15.9z" fill="#ffffff" stroke-width="none" opacity="1"></path><path id="SvgjsPath11090" d="M163.9 205.2c-.8-2.7-5.6-9.4-8.5-10.4-1.3-1.1-7.2-6.3-9.1-7.1-1.8-.7-6-2.1-6.9-2.4-.7-.5-4.9-3.5-6.3-6.5-.1-.3-4.3-7.2-6.2-8.8-.3-.8-1.2-2.7-4-4.7-3.4-2.6-8.7-3.1-8.9-3.1-.3 0-.6.1-.9.4-.2.2-.3.6-.2.9 0 0 .6 2.4 1.3 6.3.6 3.8.9 6.3-.1 8.8-.7 1.6-2.5 3.4-4.4 5.2-1 1-2.1 2-3 3-.5.6-1 1.1-1.4 1.6-1.7 1.8-3 3.2-4.1 5.5-2-1.9-6.5-5.8-10.2-7.6-4.8-2.3-6.1-4.1-6.7-6.6-.5-1.8.5-8.6 1.4-13.7.4-.2.6-.7.4-1.2 0-.1-.1-.2-.1-.2 0-.2.1-.4.1-.5.1-.3 0-.6-.2-.8s-.5-.4-.8-.4c-1.1 0-6.9.1-8.7 1.9-.3.4-1 .7-1.8 1.1-2 1-5.1 2.5-6.5 6.9-.9 1.1-4.6 5.8-4.6 9.1l-4.2 4.7c-1.4.5-8.6 3.1-10.9 4.5-2.3 1.4-5.2 4.6-5.8 5.2-.8.5-4.6 3.1-5.6 5.7-.9 2.3-3.5 10.4-1.6 18.1.1.4.5.8 1 .8H164c.3 0 .5-.1.7-.3s.3-.5.3-.7c0-.5-.3-11.8-1.1-14.7zm-26.3-18c0-.3-.1-.5-.1-.8.1.1.2.2.4.3-.1.1-.2.3-.3.5zm-2.2-2.5c.3 1.3.2 2.6.4 3.9 0 .1.2.2.3 0 .3-1.1.1-2.4-.2-3.6.4.3.8.6 1.1.9.1.6.2 1.2.2 1.9-.8 1.1-2.2 2.1-3.9 3l.1-.1c.4-1.3.4-2.7.3-4 0-.2-.3-.2-.3 0 .1 1.4-.1 2.6-.4 4 0 .1.1.2.2.2-.7.4-1.4.7-2.2 1.1.2-1.1.4-2.2.6-3.2.1-.3-.4-.4-.4-.1-.3 1.1-.7 2.4-.9 3.6-.3.1-.6.2-.8.4l.6-2.1c.1-.2-.3-.4-.4-.1-.2.9-.6 1.7-.9 2.5-.4.2-.8.3-1.2.5.3-.8.5-1.7.6-2.4 0-.2-.3-.2-.3 0-.1.9-.4 1.6-.8 2.4-.1.1-.1.2-.2.3l-1.5.6-.3.1 1.2-3c.1-.2-.3-.3-.4-.1-.5 1.1-1 2.2-1.4 3.4-.4.2-.9.3-1.3.5.6-1 1-2.2 1.2-3.3 0-.2-.3-.3-.3-.1-.3 1.4-1 2.5-1.7 3.7l-.9.3c.5-.9.8-2 .9-2.8 0-.2-.2-.3-.3-.1-.1.8-.4 1.5-.8 2.1-.2.3-.4.6-.7 1l-.9.3c.5-.8.8-1.7 1.1-2.5.1-.2-.2-.3-.3-.1-.2.7-.5 1.3-.9 1.9-.2.3-.4.6-.7.9-.3.1-.6.2-1 .3.3-.5.5-1.1.8-1.6.1-.2-.2-.3-.2-.1-.4.6-.9 1.3-1.3 2-.2.1-.5.2-.8.3.1-.3.3-.6.4-.9.1-.2-.2-.3-.3-.1-.2.4-.5.8-.7 1.3l-.9.3c.1-.2.2-.4.4-.6.1-.2-.2-.4-.3-.2-.2.3-.5.6-.8 1-2.1.7-4.1 1.4-5.8 1.9-1.3-1-2.5-1.7-3.4-2.2 2.1-2.9 4.9-6.2 7.3-7.8.9-.6 1.9-1.3 3-1.9 4-2.6 8.6-5.4 10.8-9.8.8-1.6 1.2-3.1 1.4-4.2 1.1 1.5 2.2 3.3 2.9 4.4-.2 1.3-.5 2.7-.6 4-.2.2-.5.5-.8.7.3-1.7.6-3.5.9-5.2 0-.2-.3-.3-.3-.1-.4 1.9-.9 3.9-1.2 5.9-.3.2-.5.5-.8.7.3-1.5.4-3.1.6-4.5 0-.2-.3-.3-.3-.1-.3 1.7-.8 3.4-.9 5.1-.4.3-.8.6-1.1.9.2-1.3.5-2.5.9-3.8.1-.2-.2-.3-.3-.1-.6 1.3-1.1 2.9-1.2 4.4l-.9.6c0-.2.1-.4.1-.6l.3-2.1c0-.2-.3-.3-.3-.1-.2.7-.3 1.5-.4 2.2-.1.3-.1.6-.2 1-.2.1-.4.3-.7.4.2-.8.2-1.6.3-2.4 0-.2-.2-.2-.3-.1-.2.9-.5 1.8-.7 2.8-.2.1-.4.2-.5.3 0-.2 0-.3.1-.5.1-.6.2-1.1.2-1.7 0-.2-.2-.2-.3 0l-.3 1.8c-.1.2-.1.5-.2.8-.2.1-.5.3-.8.4.1-.5.2-1 .4-1.5.1-.2-.2-.3-.3-.1-.2.6-.4 1.2-.6 1.9-.3.1-.6.3-.9.4-.2.1-.3.2-.4.3.1-.3.2-.7.3-1 .1-.2-.2-.3-.3-.1-.2.6-.4 1.1-.5 1.7 0 .1.2.2.3.1 0 0 0-.1.1-.1 0 .1 0 .3.1.4.2.4.5.6.9.6.1 0 .2 0 .4-.1 6.4-2.6 11.5-7.9 13.1-9.6.6 1 1.4 1.8 2.1 2.4zm-27.1 17.8c.8.7 1.7 1.4 2.5 2.3 2.8 2.9 3 5.5 2.5 6.3-.1.1-.2.4-.9.1-1.7-.6-3-3.8-4-6.1-.4-.9-.7-1.7-1.1-2.3.4-.1.7-.2 1-.3zm-2.1-1.4c-.1-.1-.1-.2-.2-.3.1.1.2.1.3.2 0 .1 0 .1-.1.1zm-7.8 2.6c.6 0 1.2 0 1.8.1-.4 1.1-.8 2.3-1.1 3.4-.2.9-.2 1.7-.3 2.5-.1 1.8-.1 2.9-2.2 4-.7.4-1.2.4-1.3.3-.4-.4-.6-2.9 1.7-7.8.5-1.1.9-1.9 1.4-2.5zm-5.8-2.3c-.3-.3-.7-.6-1-.9-.2-.2-.5.1-.3.3l.6.6c-.6 0-1.3-.1-1.9-.1-.2-.2-.3-.5-.4-.8-.1-.3-.5-.2-.4.1.1.2.1.4.3.6-.7-.1-1.5-.1-2.2-.2-.2-.2-.3-.5-.4-.7-.1-.2-.4-.1-.3.1l.3.6-2.7-.3c-.3-.4-.6-.9-.9-1.3-.1-.2-.4 0-.3.2.2.4.4.7.6 1.1-.8-.1-1.6-.2-2.3-.3-.2-.2-.4-.5-.5-.8-.3-.5-.4-1-.6-1.6-.1-.3-.6-.2-.5.1.1.7.4 1.4.8 2.1-.8-.1-1.5-.2-2.2-.4-.9-1.1-1.5-2.2-1.7-3.8 0-.3-.5-.3-.4 0 .1 1.2.5 2.5 1.2 3.6-.7-.1-1.3-.3-1.8-.5-.9-1.1-1.5-2.3-1.9-3.6.2-.1.4-.2.5-.4.3-.5.2-1.1-.3-1.4-.6-.4-1.1-.8-1.6-1.2 0-3.6.5-6.8 2.2-9.9.5.8 1.1 1.6 1.8 2.3-1.2 2.3-1.9 4.8-1.6 7.4 0 .2.3.2.3 0 .1-2.6.4-4.9 1.5-7.2.7.8 1.4 1.5 2.1 2.3-.2.8-.4 1.5-.5 2.3 0 .2.2.3.3.1.3-.6.4-1.3.6-2 3.1 3 6.7 5.4 9.8 6.5 4.4 1.5 8.7 3.7 11.2 5.2-.8.4-1.6 1-2.5 2-1.5.1-3.2 0-4.9-.1zm-11.7-36.2c.5.2.9.4 1.4.5-.3.2-.7.5-1.1.9-.5-.5-1.2-.8-1.9-1.1.4-.1 1-.2 1.6-.3zm-10.8 25.3c.4-3.6 1.2-6.7 3.1-9.8.3.6.6 1.1 1 1.7-1.8 3-2.8 6.5-2.3 9.9-.7-.6-1.3-1.2-1.8-1.8zm-2.4-3.4c.4-3.5 1.7-6.6 4.4-9 .2.7.5 1.4.9 2.1-1.9 2.9-3.1 6.3-3.2 9.8-.9-1-1.6-2-2.1-2.9zm5.9-11.6c0-.5.1-1 .1-1.4 1.5-.4 3-.6 4.5-.8.1.9.2 1.8.5 2.6h-.1c-1.7.2-3.2 1-4.7 1.9-.1-.9-.3-1.6-.3-2.3zm8.7-7.2c.3.3.6.7.9 1-.1.3-.1.7-.2 1l-.6-.6-.7-.7c.2-.3.4-.5.6-.7zm-.9 1.1c.2.2.4.5.7.7.3.3.6.7.9.9-.1.3-.1.6-.1.9-.3-.2-.7-.4-1-.7-.4-.3-.7-.5-1.1-.8.1-.3.3-.7.6-1zm-1.1 2.7.3-1.2c.4.3.7.6 1.1.8.3.3.7.6 1.1.8-.1.6-.1 1.1-.2 1.6-.3-.2-.6-.4-.9-.7-.5-.4-.9-.7-1.4-1-.1 0-.1-.1 0-.3zm-1.3-2.7c-1-.4-2.1-.6-3.2-.8.4-.6.8-1.1 1.1-1.5.9.4 1.9.7 2.8 1-.2.4-.5.9-.7 1.3zm-3.4-.4c1.1.2 2.1.6 3.2.9-.2.4-.3.7-.4 1.1-1.2-.2-2.4-.4-3.6-.5.3-.6.5-1.1.8-1.5zm5.7 5.2c.4.3.7.6 1.1.9 0 .5-.1.9-.1 1.3l-.6-.6c-.4-.4-.8-.7-1.2-1.1l-.3-1.5c.4.4.8.7 1.1 1zm0 2.1 1 1v1.2c-.5-.8-1-1.6-1.3-2.5l.3.3zm2.2-9c-.1.1-.1.2-.1.3-.1.3-.1.6-.2 1-.2-.2-.4-.4-.6-.7.4-.2.7-.5.9-.6zm-.8-1.9c-.1 0-.1 0 0 0-.2-.2-.4-.3-.6-.4.5-.1 1-.1 1.5-.1-.4.2-.7.3-.9.5zm-4.9.8c.1-.1.4-.3.7-.4.3.1.7.2 1 .4.5.2.9.5 1.4.7-.3.3-.6.6-.8.9-.9-.4-1.9-.7-2.8-1 .3-.4.5-.6.5-.6zm-3.1 4.6c1.2.2 2.5.4 3.7.6 0 .1-.1.3-.1.5-.1.4-.1.8-.1 1.1-1.5-.1-3 .2-4.4.6.2-1 .5-1.9.9-2.8zm-2.8 6.8c-2.6 2.2-4.4 5.3-4.6 8.7-.5-1-.9-1.8-1.2-2.6.5-3.3 3.5-7 5.5-9.1v.8c0 .8.1 1.5.3 2.2zm-6.4 9.7c-.3 1.6-.3 3.2.1 4.7-.8-.8-1.6-1.6-2.2-2.3 0-1.8.3-3.4.9-5 .4.8.7 1.7 1.2 2.6zm.7 5.3c-.3-1.6-.5-3.1-.4-4.7.6 1.1 1.4 2.3 2.4 3.5 0 1.2.2 2.5.7 3.6l-2.7-2.4zm3.3 2.9c-.4-1.2-.7-2.4-.8-3.6.6.7 1.4 1.4 2.2 2.1.1 1.2.5 2.3 1.1 3.3-.8-.5-1.7-1.1-2.5-1.8zm3.1 2.3c-.6-1.1-1.1-2.2-1.3-3.4.4.4.9.7 1.4 1.1.1.1.2.1.4.1.3 1.2.8 2.3 1.5 3.3-.6-.3-1.3-.7-2-1.1zm28.5 3.5c-.1.1-.1.3-.2.4h-.6c.3-.2.6-.3.8-.4zm3 .3.1.1h-.1c.1 0 .1-.1 0-.1zm27.9-20.7c-.2.2-.6.7-1.2 1.3.1-.9.2-1.9.3-2.9.1.2.2.3.2.4.2.4.4.8.7 1.2zM115.4 165c.2.1.3.3.5.5-.1.1-.2.3-.3.4 0-.3-.1-.6-.2-.9zm.9.8.8.8c-.3.4-.5.8-.8 1.1-.1.1-.1.2-.2.3-.1-.5-.2-1-.3-1.4.1-.3.3-.5.5-.8zm.4 11.2c.8-.7 1.3-1.6 2-2.4.2-.2.4-.5.7-.7-.7 1.6-1.8 2.9-2.8 3.9 0-.3.1-.6.1-.8zm.6-2.6c.8-.6 1.3-1.5 1.9-2.2.2-.2.3-.4.5-.6.1.4.1.9-.1 1.3l-1.5 1.5c-.5.5-1 1.1-1.4 1.6.1-1 0-2.1-.1-3.2.5-.6.8-1.3 1.2-1.9.3-.5.8-1 1.2-1.4l.6 1.5c-.3.4-.6.7-.9 1-.6.7-1.3 1.4-1.8 2.2 0 .2.3.3.4.2zm.2-3.9c-.3.4-.7.9-.9 1.4-.1-.4-.1-.9-.2-1.4.5-.5.9-1.1 1.3-1.6.2-.2.4-.5.6-.8l.6.9c-.5.4-1 .9-1.4 1.5zm-.3-1.7c-.3.3-.6.7-.8 1v-.3c0-.3-.1-.5-.1-.8.2-.2.3-.5.4-.7.2-.4.5-.8.8-1.1.2.3.5.5.7.8-.5.4-.8.7-1 1.1zm-16.3 27.5c.2.2.6.3.9.3.3-.1.6-.3.7-.6 1.1-2.7 2.4-4.1 4.3-6.2.5-.5.9-1 1.5-1.6.9-1 1.9-2 2.9-2.9 1.2-1.1 2.3-2.2 3.2-3.3.3 0 .6-.2.7-.4.1-.1.4-.3.6-.5 1.5-1.2 4.6-3.6 5.8-7.2 1.1-3.2-1.1-6.5-3-8.5 1.1.4 2.3.9 3.2 1.6 2.8 2.1 3.3 3.9 3.3 3.9v.1s0 .1.1.1c0 .1.1.1.1.2v.1c.1.1 1.7 2-.6 6.4-2 3.8-6.3 6.6-10.1 9-1.1.7-2.1 1.3-3.1 2-2.7 1.8-5.8 5.4-8.1 8.7-.2 0-.5.1-.7.3-.2-.1-.4-.1-.6-.1-.3.1-.6.1-.8.6-2.5-1.5-7.1-4-11.9-5.6-.6-.2-1.1-.4-1.7-.7h.1l1.8-2.4c.1-.1-.1-.3-.2-.2-.7.7-1.3 1.5-1.9 2.3-.1.1-.1.1 0 .2-1.2-.6-2.3-1.3-3.5-2.1.3-.8.7-1.6 1.3-2.3.4-.5.9-.9 1.4-1.2 1 .7 2.1 1.4 3.5 2 4.6 1.9 10.7 7.9 10.8 8zm-14.7-10.5c-1.2.8-2.1 2.2-2.7 3.6-1.4-1.1-2.8-2.3-4-3.6.9-.9 1.9-1.8 2.6-2.8.1-.2-.1-.3-.3-.2-.9.8-1.8 1.8-2.6 2.7-.8-.8-1.5-1.6-2.1-2.4 1.1-.9 2.3-1.7 3.4-2.5.2-.1.1-.4-.1-.3-1.3.5-2.5 1.4-3.6 2.5-.5-.6-.9-1.3-1.3-1.9 1.1-.7 2.2-1.4 3.2-2.2.1-.1 0-.3-.2-.2-1.1.6-2.1 1.4-3.2 2.1-.5-.8-.9-1.6-1.2-2.3 1.5-.8 3-1.4 4.6-2 0 0 .1 0 .1-.1 1.3 3.7 4.4 6.9 4.5 7.1.2.2.3.2.6.3.6.7 1.4 1.4 2.3 2.2zm-12.8-17c-.8 1.5-1.5 3.3-1.7 5.3-2.1 2-3.8 4.4-5.1 7-.3.6-.6 1.2-.8 1.8-.2-.4-.2-.8-.3-.9-.2-2.1 2.5-6.1 4.3-8.2.1-.1.2-.2.2-.4v-.1c.6-.6 1.1-1.3 1.7-1.9.1-.1-.1-.3-.2-.2l-1.2 1.2c.8-1.7 1.9-2.8 3.1-3.6zm-9.3 15.5c-.8 1.6-1.2 3.3-1 5-.8-.8-1.3-1.5-1.8-1.9l2.8-3.1zm-14.6 8.4c1.9-1.2 8.1-3.5 10.1-4.2 1.9 2.1 9.1 10.1 14.6 12.4 4 1.6 14.4 2.3 21.9 2.7-.3.5-.6 1-.9 1.6-1.1 2.4-3.5 8.1-1.3 10.1.3.3.8.6 1.6.6.6 0 1.2-.2 2.1-.6 3.1-1.7 3.2-3.8 3.3-5.7 0-.7.1-1.4.2-2.1.1-.4.2-.9.4-1.4.2 2.8.5 6.5 1 11.4.1.5.5.9 1 .9h.1c.6-.1 1-.5.9-1.1-.3-3.5-.6-7.1-.9-10.3 1.2 4.1 2.8 8.8 4.3 10.5.3.4 1 .5 1.4.1.4-.4.5-1 .1-1.4-1.6-1.9-3.5-8.4-4.7-12.7.2-.1.4-.1.8-.2.3.5.7 1.5 1.2 2.5 1.2 2.8 2.6 6.2 5.2 7.2.4.2.8.2 1.2.2.9 0 1.6-.4 2.1-1.1 1.1-1.7.5-5.4-2.8-8.8l-1.7-1.7c.4-.1.8-.3 1.3-.4v.1c-.1.1.1.2.2.1l.3-.3c4.5-1.5 9.8-3.3 13.2-4.6l.7-.3c6.2-2.5 12.1-4.8 13.5-8.8 1.6.5 4.5 1.5 5.8 2.1 1.2.5 5.4 3.9 8.1 6.4-1.2 2.2-4.3 8.9-4 23H52c.2-12.2-5.3-19.6-7.3-21.9 1-1.1 3.1-3.3 4.8-4.3zm105.3 26.2c-.5-.2-1-.5-1.4-.9-.7-.5-1.3-1.1-1.8-1.7 0-1.2.1-2.3.1-3.3 1.9 2.4 4.4 4.5 7.2 5.9h-4.1zm-3.2-1.6c.6.6 1.2 1.1 1.9 1.5h-1.9v-1.5zM42 218.6c-1.8-.7-3.5-1.3-5.1-2.2-.1-1-.1-1.9-.1-2.9 3.3 2.2 6.9 3.9 10.8 4.6.2 0 .3-.3.1-.3-3.8-1.2-7.4-2.6-10.8-4.8 0-1.2.2-2.3.3-3.4 3.8 2.1 7.8 3.9 12.1 4.8.2.1.3-.3.1-.4-4.1-1.5-8.2-3-12.1-4.9.4-2.6 1.1-4.7 1.5-5.9 0 0 0 .1.1.1 3 1.8 6.1 3.4 9.5 4.4.3 1 .7 2.1.9 3.3-3.7-1.5-7.5-2.8-11-4.9-.2-.1-.4.2-.2.4 3.4 2.2 7.2 4.2 11.3 5 .5 2.2.7 4.7.6 7.4h-7.9c0-.1 0-.2-.1-.3zm1.2-20.3c.3.3.6.8 1.1 1.4-.5-.3-1.1-.6-1.6-1 .1-.1.3-.3.5-.4zm-.9.7c.9.6 1.7 1.1 2.7 1.6.5.8 1.1 1.8 1.7 3-1.8-1.1-3.8-1.8-5.8-2.7-.3-.1-.5.3-.2.4 2 .9 4 2.1 6.1 2.8h.2c.4.9.9 1.9 1.3 3-3.1-1.3-6.1-2.6-9.1-4.1H39c0-.1.1-.2.1-.3.3-1.3 1.9-2.7 3.2-3.7zm-5.4 17.9c1.4.9 3 1.6 4.6 2h-4.3c-.1-.7-.2-1.4-.3-2zm123 2c-3.1-1.8-5.9-3.8-8.2-6.4.1-1.6.2-3.1.4-4.4 2.8 3.8 6.4 7.2 10.5 9.4.2.1.4-.2.2-.3-4-2.8-7.5-5.8-10.6-9.5h-.1c.2-1.4.4-2.6.7-3.7 2.2 3.2 5.1 6.4 8.6 8.2.2.1.4-.2.2-.3-3.3-2.5-6.2-4.9-8.5-8.4 0-.1-.1-.1-.1-.1.2-.9.4-1.7.7-2.4 1.3 1.5 2.7 3.1 4.4 4.2.2.1.4-.1.2-.3-1.4-1.5-3-2.9-4.4-4.4.6-1.7 1.1-2.8 1.4-3.4 2 1.3 6 6.4 6.7 8.8.6 1.9.9 9.3 1.1 13h-3.2zm-25.4-29c.6-1.4.7-3 .6-4.5 0-.2-.3-.2-.3 0 .1 1.5-.1 3-.4 4.5-.1 0 .1.1.1 0z" fill="#000000" stroke-width="none" opacity="1"></path></g><g id="svga-group-head" transform="matrix(1,0,0,1,0,0)"><g id="svga-group-ears-left-move" transform="matrix(1,0,0,1,0,0)"><g id="svga-group-ears-left"><path id="SvgjsPath10987" d="M62.9 81.4s-3-4.7-6.1-5.6-6.6 2.1-6.1 7.8c.6 5.7 8.7 18.9 15.9 19.7 6.2.7-1.1-18.5-3.7-21.9z" fill="#ffffff" stroke-width="none" opacity="1"></path><path id="SvgjsPath10988" d="M66.5 104.2c-7.7-.8-16.1-14.5-16.7-20.4-.3-3.4.8-6.4 3-7.9 1.3-.9 2.9-1.2 4.4-.8 3.3.9 6.2 5.3 6.6 5.9 2.1 2.7 8.5 18 5.5 22-.5.7-1.4 1.1-2.3 1.1-.3.1-.4.1-.5.1zM53.9 77.1c-1.7 1.1-2.5 3.6-2.3 6.4.5 5.4 8.5 18.3 15 18.9.4 0 .7 0 .9-.3 2.1-2.9-3.2-17.2-5.5-20.3v-.1c-.8-1.2-3.3-4.6-5.5-5.2-.2-.1-.5-.1-.7-.1-.7.2-1.3.4-1.9.7z" fill="#000000" stroke-width="none" opacity="1"></path><path id="SvgjsPath10989" d="M55.5 79.3c2.6 1.4 5 5.6 6.2 9.6v.1c0 .3-.2.4-.3.1-.4-1.2-1-1.2-1.7 0-.2.7-.1 1.5.1 2.3.2.7.5 1.4.8 1.9.6 1.2 1.4 2 2.1 3 .2.3 0 .7-.2.5-1.6-1-3.9-4.6-3.4-7.6.2-1.4 1.1-2.2 1.8-1.7-.9-2.1-1.9-3.9-3.2-5.4-.7-.8-2.3-2.7-3.1-2.3-1.5.6-.7 4.6-.5 6.4 0 .3-.2.4-.3.1-1-2.9-1.1-8.5 1.7-7z" fill="#000000" stroke-width="none" opacity="1"></path><path id="SvgjsPath10990" d="M61.9 97.8c-2.8-.9-4.8-4.6-6-8.8-.7-2.5-2.1-8.3.6-8.2.2 0 .3.5.1.6-2.5 1.1.2 8.9 1 10.7 1.1 2.6 2.5 4.3 4.3 5.2.2.2.2.6 0 .5z" fill="#000000" stroke-width="none" opacity="1"></path></g></g><g id="svga-group-ears-right-move" transform="matrix(1,0,0,1,0,0)"><g id="svga-group-ears-right"><path id="SvgjsPath10991" d="M137.1 81.4s3-4.7 6.1-5.6 6.6 2.1 6.1 7.8c-.6 5.7-8.7 18.9-15.9 19.7-6.2.7 1.1-18.5 3.7-21.9z" fill="#ffffff" stroke-width="none" opacity="1"></path><path id="SvgjsPath10992" d="M133.1 104.2c-1 0-1.8-.4-2.3-1.1-2.9-4 3.4-19.3 5.5-22 .4-.6 3.3-5.1 6.6-5.9 1.5-.4 3-.1 4.4.8 2.2 1.5 3.3 4.4 3 7.9-.6 5.9-9 19.6-16.7 20.4-.2-.1-.3-.1-.5-.1zm11.1-27.6c-.2 0-.5 0-.7.1-2.2.6-4.7 3.9-5.5 5.2v.1c-2.4 3-7.7 17.4-5.5 20.3.2.3.4.4.9.3 6.5-.7 14.5-13.6 15-18.9.3-2.9-.6-5.3-2.3-6.4-.6-.5-1.2-.7-1.9-.7z" fill="#000000" stroke-width="none" opacity="1"></path><path id="SvgjsPath10993" d="M144.5 79.3c-2.6 1.4-5 5.6-6.2 9.6v.1c0 .3.2.4.3.1.4-1.2 1-1.2 1.7 0 .2.7.1 1.5-.1 2.3-.2.7-.5 1.4-.8 1.9-.6 1.2-1.4 2-2.1 3-.2.3 0 .7.2.5 1.6-1 3.9-4.6 3.4-7.6-.2-1.4-1.1-2.2-1.8-1.7.9-2.1 1.9-3.9 3.2-5.4.7-.8 2.3-2.7 3.1-2.3 1.5.6.7 4.6.5 6.4 0 .3.2.4.3.1 1-2.9 1.1-8.5-1.7-7z" fill="#000000" stroke-width="none" opacity="1"></path><path id="SvgjsPath10994" d="M138.1 97.8c2.8-.9 4.8-4.6 6-8.8.7-2.5 2.1-8.3-.6-8.2-.2 0-.3.5-.1.6 2.5 1.1-.2 8.9-1 10.7-1.1 2.6-2.5 4.3-4.3 5.2-.2.2-.2.6 0 .5z" fill="#000000" stroke-width="none" opacity="1"></path></g></g><g id="svga-group-faceshape-wrap"><g id="svga-group-faceshape-single"><path id="SvgjsPath10951" d="M138.2 58.2c-2-10.8-13.3-27.4-37.2-27.4S69.1 43.5 65.5 53c-3 8.1-3 21.3-3 21.3s.4 28.4 10 46.1c9.3 17 28.9 31.8 46.2 11.8 21.5-24.8 20.6-57.8 20.6-57.8s.3-8.5-1.1-16.2z" fill="#ffffff" stroke-width="none" opacity="1"></path><path id="SvgjsPath10952" d="M100.7 143.1c-.8 0-1.5 0-2.3-.1-11.8-1.3-21.7-12.2-27-22-9.6-17.7-10.2-45.5-10.2-46.7 0-.6 0-13.6 3.1-21.8 5.8-15.5 17.8-23 36.7-23 10.9 0 20.5 3.4 27.7 10 5.5 5 9.6 11.9 10.8 18.5 1.4 7.6 1.2 15.7 1.2 16.4s.1 8.8-2.3 19.9c-2.3 10.5-7.4 25.8-18.7 38.8-5.8 6.6-12.2 10-19 10zm.3-111c-17.7 0-28.9 7-34.3 21.3-2.9 7.8-2.9 20.8-2.9 20.9 0 .3.5 28.3 9.9 45.5 5 9.2 14.2 19.5 25 20.6 6.8.7 13.3-2.3 19.1-9.1 20.9-24.1 20.3-56.6 20.3-57 0-.1.2-8.4-1.2-15.9-1.1-6-4.8-12.4-10-17-6.6-6.1-15.6-9.3-25.9-9.3z" fill="#000000" stroke-width="none" opacity="1"></path></g></g><g id="svga-group-mouth-single-move" transform="matrix(1,0,0,1,0,0)"><g id="svga-group-mouth-single"><path id="SvgjsPath11053" d="M114.77 119.83c-1.13.44-2.28.54-3.44.5-1.86-.99-3.84-2.01-5.96-2.23-2.25-.23-4.37 1.18-6.55.6-1.62-.43-2.83-1.07-4.53-.62-2.55.67-4.74 2.91-7.53 1.8-.08-.03-.14-.02-.19.01-.21-.08-.41-.16-.62-.26-.33-.16-.61.33-.29.49.82.41 1.64.6 2.47.68.01.01 0 .02.02.03 6.71 6.02 16.81 5.73 23.65.07 1.04.01 2.08-.11 3.11-.52.35-.13.2-.68-.14-.55zm-16.76-.81c1.63.54 2.65.39 4.28-.03 2.77-.72 5.16.06 7.55 1.23-2.67-.3-5.34-.96-7.92.34-1.04.52-1.2.66-2.56.65-1.39-.01-1.47-.19-2.53-.68-.69-.31-1.37-.49-2.12-.57-1.26-.13-2.5.04-3.73.18 2.54-1.04 4.18-2.06 7.03-1.12zm-8.95 1.81c1.16 0 2.34-.18 3.57-.28 1.98-.16 3.32.32 5.07 1.13.7.32 1.27.57 2.06.48 1.3-.16 2.36-1.22 3.58-1.61 1.62-.53 3.37-.25 5.01-.01.87.13 1.73.26 2.58.32-6.42 4.96-15.56 5.2-21.87-.03z" fill="#000000" stroke-width="none" opacity="1"></path></g></g><g id="svga-group-eyes-left-move" transform="matrix(1,0,0,1,0,0)"><g id="svga-group-eyes-left"><g id="svga-group-eyesback-left"></g><g id="svga-group-eyesiriswrapper-left"><g id="svga-group-eyesiriscontrol-left" transform="matrix(1,0,0,1,0,0)"><g id="svga-group-eyesiris-left"><path id="SvgjsPath11025" d="M85 84.8c-1-1.9-3.2-2.7-5.2-2-2.2.8-3.8 3-3.1 5.4.4 1.2 1.5 2.4 2.8 2.7.5.1 1 .1 1.5.1.5.1 1.1 0 1.7-.2 2.4-.9 3.5-3.7 2.3-6z" fill="#ffffff" stroke-width="none" opacity="1"></path><path id="SvgjsPath11026" d="M83.4 85.8c0-.1 0-.1-.1-.1-.6-1.1-2-1.5-3.1-1 .2.2.4.5.6.7.2.3.5 1 .1 1.2-.4.2-1 0-1.3-.2-.2-.1-.3-.3-.5-.5 0 .1-.1.1-.1.2-.1.2-.1.4-.1.6-.2.7 0 1.4.5 1.9.2.2.5.3.8.4.6.3 1.2.4 1.8.1-.1-.1-.2-.2-.2-.4 0-.3.2-.6.5-.7.3-.1.6 0 .7.2.3-.3.5-.7.6-1.1.2-.3.1-.9-.2-1.3zm-2 5.3H81c-.5 0-1 0-1.4-.1-1.3-.3-2.4-1.4-2.9-2.8-.8-2.5.9-4.8 3.1-5.5 2.1-.8 4.4.1 5.4 2 .6 1.1.7 2.5.2 3.7s-1.4 2.1-2.6 2.5c-.5.2-1 .2-1.4.2zm-.4-.3c.6.1 1.1 0 1.6-.2 1.1-.4 2-1.2 2.4-2.4.4-1.1.4-2.3-.2-3.4-.9-1.8-3.1-2.6-5-1.9-2.1.7-3.7 2.9-3 5.2.4 1.3 1.5 2.3 2.7 2.6.5.1 1 .1 1.5.1z" fill="#000000" stroke-width="none" opacity="1"></path></g></g></g><g id="svga-group-eyesfront-left"><path id="SvgjsPath11115" d="M81.02 74.43c-6.9 0-12.5 5.6-12.5 12.5s5.6 12.5 12.5 12.5 12.5-5.6 12.5-12.5-5.6-12.5-12.5-12.5zm6.92 16.9c-.4-.18-1.61.18-4.87.09s-6.62-.98-9.25-2.5c-2.64-1.52-3.31-5.23-3.31-5.23s3.71-.72 8.67-.54 7.65 1.92 8.54 3.4c.89 1.48 1.83 4.43 1.83 4.43-.05.57-1.21.53-1.61.35z" fill="#ffffff" stroke-width="none" opacity="1"></path><path id="SvgjsPath11116" d="M90.45 92.29c.37-1.74.34-3.67-.41-5.27-.09-.19-.39-.09-.38.1.04.89.08 1.74.08 2.59-.63-1.8-1.72-4.14-3.36-5.41-1.79-1.38-5.88-1.92-9.75-1.85a.507.507 0 0 0-.3-.17c-2.87-.49-3.07-1.83-3.07-1.84a.536.536 0 0 0-.58-.51c-.3.02-.53.27-.51.58 0 .07.1 1.24 1.69 2.11-.42.04-.84.09-1.23.15-3.29.01-4.07-1.65-4.11-1.72a.557.557 0 0 0-.71-.29c-.28.12-.41.43-.29.71.03.07.55 1.25 2.38 1.89l-.1.03-.13.06c-.07.04-1.77 1.13-3.67-.2a.546.546 0 1 0-.62.9c2.31 1.61 4.42.5 4.83.25.09-.03.18-.05.27-.08-.09.12-.13.27-.09.43.07.33 1.68 7.29 13.26 7.29 1.29 0 2.71-.09 4.27-.28.3-.04.51-.31.47-.61a.542.542 0 0 0-.61-.47c-14.42 1.79-16.26-5.83-16.33-6.16a.511.511 0 0 0-.31-.37c4.36-1.03 12.29-.75 14.6 1.03 2.53 1.95 3.65 7.15 3.67 7.21.02.1.08.19.15.26l-.03.22c-.09.49.62.7.76.21.06-.2.11-.4.15-.6 0-.07.01-.13.01-.19z" fill="#000000" stroke-width="none" opacity="1"></path></g></g></g><g id="svga-group-eyes-right-move" transform="matrix(1,0,0,1,0,0)"><g id="svga-group-eyes-right"><g id="svga-group-eyesback-right"></g><g id="svga-group-eyesiriswrapper-right"><g id="svga-group-eyesiriscontrol-right" transform="matrix(1,0,0,1,0,0)"><g id="svga-group-eyesiris-right"><path id="SvgjsPath11027" d="M123.4 84.8c-1-1.9-3.2-2.7-5.2-2-2.2.8-3.8 3-3.1 5.4.4 1.2 1.5 2.4 2.8 2.7.4.1.9.1 1.4.1.5.1 1.1 0 1.7-.2 2.5-.9 3.6-3.7 2.4-6z" fill="#ffffff" stroke-width="none" opacity="1"></path><path id="SvgjsPath11028" d="M121.8 85.8c0-.1 0-.1-.1-.1-.6-1.1-2-1.5-3.1-1 .2.2.4.5.6.7.2.3.5 1 .1 1.2-.4.2-1 0-1.3-.2-.2-.1-.3-.3-.5-.5 0 .1-.1.1-.1.2-.1.2-.1.4-.1.6-.2.7 0 1.4.5 1.9.2.2.5.3.8.4.6.3 1.2.4 1.8.1-.1-.1-.2-.2-.2-.4 0-.3.2-.6.5-.7.3-.1.6 0 .7.2.3-.3.5-.7.6-1.1.2-.3 0-.9-.2-1.3zm-2.1 5.3h-.4c-.5 0-1 0-1.4-.1-1.3-.3-2.4-1.4-2.9-2.8-.8-2.5.9-4.8 3.1-5.5 2.1-.8 4.4.1 5.4 2 .6 1.1.7 2.5.2 3.7s-1.4 2.1-2.6 2.5c-.5.2-.9.2-1.4.2zm-.3-.3c.6.1 1.1 0 1.6-.2 1.1-.4 2-1.2 2.4-2.4.4-1.1.4-2.3-.2-3.4-.9-1.8-3.1-2.6-5-1.9-2.1.7-3.7 2.9-3 5.2.4 1.3 1.5 2.3 2.7 2.6.5.1 1 .1 1.5.1z" fill="#000000" stroke-width="none" opacity="1"></path></g></g></g><g id="svga-group-eyesfront-right"><path id="SvgjsPath11117" d="M118.98 74.43c-6.9 0-12.5 5.6-12.5 12.5s5.6 12.5 12.5 12.5 12.5-5.6 12.5-12.5-5.59-12.5-12.5-12.5zm6.93 14.74c-2.64 1.52-5.99 2.41-9.25 2.5s-4.47-.27-4.87-.09c-.4.18-1.56.22-1.61-.36 0 0 .94-2.95 1.83-4.43s3.58-3.22 8.54-3.4c4.96-.18 8.67.54 8.67.54s-.67 3.72-3.31 5.24z" fill="#ffffff" stroke-width="none" opacity="1"></path><path id="SvgjsPath11120" d="M134.5 83.64a.546.546 0 0 0-.76-.14c-1.9 1.32-3.6.24-3.67.2l-.13-.06-.1-.03c1.82-.64 2.35-1.82 2.38-1.89a.553.553 0 0 0-.29-.71.536.536 0 0 0-.71.29c-.03.07-.81 1.73-4.11 1.72-.4-.06-.81-.11-1.23-.15 1.59-.87 1.69-2.05 1.69-2.11.02-.3-.21-.56-.51-.58a.536.536 0 0 0-.58.51c0 .01-.2 1.35-3.07 1.84-.12.02-.22.09-.3.17-3.87-.07-7.96.47-9.75 1.85-2.84 2.19-4.02 7.61-4.07 7.84-.06.3.13.58.42.65a.545.545 0 0 0 .64-.42c.01-.05 1.14-5.26 3.67-7.21 2.31-1.78 10.24-2.06 14.6-1.03-.15.07-.28.2-.31.37-.07.33-1.91 7.95-16.33 6.16a.55.55 0 0 0-.61.47c-.04.3.18.57.47.61 1.56.19 2.98.28 4.27.28 11.58 0 13.19-6.96 13.26-7.29a.577.577 0 0 0-.09-.43c.09.03.18.05.27.08.41.25 2.52 1.36 4.83-.25.23-.15.29-.49.12-.74z" fill="#000000" stroke-width="none" opacity="1"></path></g></g></g><g id="svga-group-facehighlight-single"></g><g id="svga-group-eyebrows-left-move" transform="matrix(1,0,0,1,0,0)"><g id="svga-group-eyebrows-left-rotate" transform="matrix(1,0,0,1,0,0)"><g id="svga-group-eyebrows-left"><path id="SvgjsPath11075" d="M66.69 76.82c.2-.16 4.99-4.03 7.37-4.29 2.38-.26 16.59 3.49 17.53 4.99.42.68.51 1.21.26 1.59-.21.31-.61.46-1.21.46-.39 0-.88-.06-1.45-.19-.95-.21-3.53-1.13-6.26-2.1-3.68-1.31-7.84-2.79-8.86-2.86-1.43-.11-5.57 2.09-7.04 2.94-.14.08-.32.04-.41-.1a.336.336 0 0 1 .07-.44z" fill="#000000" stroke-width="none" opacity="1"></path></g></g></g><g id="svga-group-eyebrows-right-move" transform="matrix(1,0,0,1,0,0)"><g id="svga-group-eyebrows-right-rotate" transform="matrix(1,0,0,1,0,0)"><g id="svga-group-eyebrows-right"><path id="SvgjsPath11076" d="M133.31 76.82c-.2-.16-4.99-4.03-7.37-4.29-2.38-.26-16.59 3.49-17.53 4.99-.42.68-.51 1.21-.26 1.59.21.31.61.46 1.21.46.39 0 .88-.06 1.45-.19.95-.21 3.53-1.13 6.26-2.1 3.68-1.31 7.84-2.79 8.86-2.86 1.43-.11 5.57 2.09 7.04 2.94.14.08.32.04.41-.1.09-.15.06-.34-.07-.44z" fill="#000000" stroke-width="none" opacity="1"></path></g></g></g><g id="svga-group-nose-single-move" transform="matrix(1,0,0,1,0,0)"><g id="svga-group-nose-single"><path id="SvgjsPath11065" d="M96.5 90.5c-1.9 4.4-3.5 8.8-4.7 13.5-.4 1.6-.7 3.4.9 4.4.7.4 1.4.3 2.2.4 1.4.1 2.1 1.1 3.1 1.9 1.1 1 2.4 1.4 3.7.5.7-.5 1.2-1.4 1.9-1.9.9-.6 2-.4 2.8-1 2.9-2 .3-6.1-1.1-8.2-.4-.5-1.2 0-.8.5.8 1.1 1.5 2.3 2 3.5.3.7.4 1.5.2 2.3-.4 1.2-1.4 1.4-2.4 1.6-1.2.3-1.8 1.1-2.7 2-1.8 1.8-3.1-.5-4.5-1.6-.4-.3-.8-.5-1.4-.6-.8-.1-1.7.1-2.4-.3-1.2-.8-.7-2.3-.5-3.4.2-.9.4-1.8.7-2.7 1-3.6 2.4-7.1 3.9-10.5.1-.5-.7-1-.9-.4z" fill="#000000" stroke-width="none" opacity="1"></path></g></g><g id="svga-group-hair-front"><path id="SvgjsPath11154" d="M107.37 39.87s-5.95 18.57-21.67 22.38-24.53 11.91-20 30.96c0 0-8.57-13.1-7.86-29.29.71-16.19 12.14-41.91 50.48-35.48 0 0 14.53-1.67 26.43 13.1s8.33 39.05.71 55.96c0 0 4.52-23.34-5.71-28.1-10.23-4.76-23.57-13.34-22.38-29.53z" fill="#ffffff" stroke-width="none" opacity="1"></path><path id="SvgjsPath11155" d="M135.53 40.91c-11.61-14.39-25.5-13.63-27.18-13.48-15.71-2.61-28.35-.15-37.55 7.3-12.19 9.86-13.76 24.81-13.95 29.15-.05 1.21-.05 2.4-.01 3.58-.01.16-.04.3-.05.46-.01.14.03.25.08.34.72 14.22 7.68 25.01 8 25.51a1 1 0 0 0 1.81-.78c-3.95-16.62 1.81-25.52 19.26-29.75 11.28-2.73 17.63-12.6 20.5-18.51 1.11 10.55 8.65 18.96 22.89 25.59 9.41 4.38 5.2 26.78 5.16 27-.1.5.2.99.68 1.14.1.03.2.05.3.05.38 0 .75-.22.91-.59 7.46-16.57 11.72-41.43-.85-57.01zm5.22 34.93c-1.85-4.77-6.33-8.43-10.91-11.14-4.87-2.89-9.87-5.42-13.68-9.74-3.13-3.55-5.25-7.71-6.49-12.2 6.71 11.37 29.65 12.43 31.63 27.68-.11 1.79-.29 3.59-.55 5.4zm-10.09-20.42c-8.54-4.85-22.81-9.2-21.49-21.46.01-.08 0-.15-.02-.21.15-.88.29-1.77.42-2.66 3.71 14.61 25.03 14.01 31.13 26.8.47 2.7.7 5.5.72 8.35-2.01-4.69-6.15-8.21-10.76-10.82zm3.32-13.25c2.86 3.54 4.8 7.72 5.98 12.27-8.1-10.18-27.26-10.58-29.47-25.02 4.32.17 14.68 1.83 23.49 12.75zm-75.14 21.8c.01-.14.01-.29.02-.45 5.57-17.57 35.77-15.35 39.81-35.04.81.03 1.63.07 2.46.13-3.58 12.07-12.02 21.05-23.46 26.26-7.28 3.32-15.72 6.84-18.75 14.33-.12-1.7-.16-3.45-.08-5.23zm29.01-13.56c7.12-5.49 12.09-13.14 14.58-21.72.89.08 1.79.18 2.7.3-1.08 6.11-2.26 12.51-5.59 17.84-4.47 7.15-12.17 10.08-19.63 13.06-8.39 3.35-17.65 8.12-19.69 17.29-.38-1.54-.7-3.17-.94-4.86 2.3-12.9 19.59-14.99 28.57-21.91zM72.06 36.28c5.92-4.79 13.37-7.38 22.26-7.79-5.28 11.47-21.06 9.63-30.05 16.9 1.88-3.2 4.4-6.37 7.79-9.11zm-9.79 13.06C70.18 38 89.78 42.27 95.68 28.45c.57-.01 1.14-.03 1.73-.02-3.95 17.78-29.81 17.23-38.12 31.21.45-2.83 1.31-6.48 2.98-10.3zm23.2 11.94C69.23 65.22 62.31 73.3 63.65 87.15c-.85-1.89-1.77-4.22-2.58-6.85.6-16.2 20.62-18.01 31.48-24.87 9.36-5.91 11.97-16 13.81-26.27.6.09 1.19.17 1.8.27.09.01.19.02.28.01.01 0 .05-.01.12-.01-.45 3.31-.98 6.58-1.91 9.78-.1.1-.18.22-.22.36-.07.18-5.97 18.08-20.96 21.71zm44.71 7.21c-14.41-6.7-21.58-15.21-21.86-25.95 1.73 6.64 5.4 12.63 10.85 16.97 6.84 5.45 19.8 9.38 21.15 18.98-.7 3.89-1.7 7.74-2.95 11.42.44-7.5-.25-18.19-7.19-21.42z" fill="#000000" stroke-width="none" opacity="1"></path></g><g id="svga-group-glasses-single-move" transform="matrix(1,0,0,1,0,0)"><g id="svga-group-glasses-single"></g></g></g></g></g><rect id="svga-credit-rect" width="200" height="15" x="0" y="185" fill="#ecf0f1" opacity="0.5" style="display: none;"></rect><text id="svga-credit-text" font-family="Avenir Next, Roboto, Helvetica, Arial, sans-serif" font-size="10px" text-anchor="start" font-weight="400" size="10px" anchor="start" weight="400" fill="#333333" x="33.40447998046875" y="182.60824704170227" style="display: none;"><tspan id="SvgjsTspan10945" dy="13" x="33.40447998046875">Created on AvatarMaker.com</tspan></text></g><defs id="SvgjsDefs10897"></defs></svg>