<?xml version="1.0" encoding="UTF-8" standalone="no"?><!-- Generator: Gravit.io --><svg xmlns="http://www.w3.org/2000/svg" xmlns:xlink="http://www.w3.org/1999/xlink" style="isolation:isolate" viewBox="0 0 76 76" width="76pt" height="76pt"><defs><clipPath id="_clipPath_ZThJiR0S3kbakm3eszoixLpd4d7AHKNj"><rect width="76" height="76"/></clipPath></defs><g clip-path="url(#_clipPath_ZThJiR0S3kbakm3eszoixLpd4d7AHKNj)"><g><path d=" M 0 0 L 76 0 L 76 76 L 0 76 L 0 0 Z " fill="none"/></g><path d=" M 9 11.853 C 7.348 11.853 6 13.201 6 14.853 L 6 50.853 C 6 52.505 7.348 53.853 9 53.853 L 32 53.853 L 32 57.853 L 29.656 57.853 C 28.32 57.853 27.066 58.373 26.121 59.318 L 23.293 62.146 C 22.84 62.146 22.444 62.45 22.327 62.888 C 22.21 63.325 22.401 63.786 22.793 64.013 C 23.185 64.239 23.68 64.174 24 63.853 L 52 63.853 C 52.404 63.853 52.769 63.61 52.924 63.236 C 53.078 62.863 52.993 62.432 52.707 62.146 L 49.879 59.318 C 48.944 58.377 47.671 57.85 46.344 57.853 L 44 57.853 L 44 53.853 L 67 53.853 C 68.652 53.853 70 52.505 70 50.853 L 70 14.853 C 70 13.201 68.652 11.853 67 11.853 L 9 11.853 Z  M 9 13.853 L 67 13.853 C 67.55 13.853 68 14.303 68 14.853 L 68 45.853 L 65 45.853 C 64.45 45.853 64 46.303 64 46.853 C 64 47.403 64.45 47.853 65 47.853 L 68 47.853 L 68 50.853 C 68 51.403 67.55 51.853 67 51.853 L 9 51.853 C 8.45 51.853 8 51.403 8 50.853 L 8 47.853 L 45.082 47.853 C 45.632 47.853 46.082 47.403 46.082 46.853 C 46.082 46.303 45.632 45.853 45.082 45.853 L 8 45.853 L 8 14.853 C 8 14.303 8.45 13.853 9 13.853 Z  M 11 15.853 C 10.45 15.853 10 16.303 10 16.853 C 10 17.403 10.45 17.853 11 17.853 L 57 17.853 C 57.55 17.853 58 17.403 58 16.853 C 58 16.303 57.55 15.853 57 15.853 L 11 15.853 Z  M 61 15.853 C 60.45 15.853 60 16.303 60 16.853 C 60 17.403 60.45 17.853 61 17.853 L 65 17.853 C 65.55 17.853 66 17.403 66 16.853 C 66 16.303 65.55 15.853 65 15.853 L 61 15.853 Z  M 50 44.853 C 49.45 44.853 49 45.303 49 45.853 L 49 47.853 C 49 48.403 49.45 48.853 50 48.853 C 50.55 48.853 51 48.403 51 47.853 L 51 45.853 C 51 45.303 50.55 44.853 50 44.853 Z  M 55 44.853 C 54.45 44.853 54 45.303 54 45.853 L 54 47.853 C 54 48.403 54.45 48.853 55 48.853 C 55.55 48.853 56 48.403 56 47.853 L 56 45.853 C 56 45.303 55.55 44.853 55 44.853 Z  M 60 44.853 C 59.45 44.853 59 45.303 59 45.853 L 59 47.853 C 59 48.403 59.45 48.853 60 48.853 C 60.55 48.853 61 48.403 61 47.853 L 61 45.853 C 61 45.303 60.55 44.853 60 44.853 Z  M 34 53.853 L 42 53.853 L 42 57.853 L 34 57.853 L 34 53.853 Z  M 29.656 59.853 L 46.344 59.853 C 47.133 59.853 47.906 60.173 48.464 60.732 L 49.587 61.853 L 26.414 61.853 L 27.535 60.732 C 28.099 60.172 28.861 59.856 29.656 59.853 Z " fill="rgb(0,0,0)"/><path d=" M 44.951 20.567 C 39.06 20.651 34.286 25.41 34.186 31.301 C 34.082 37.276 39.097 42.396 45.072 42.416 C 45.463 42.418 45.854 42.398 46.243 42.358 C 48.882 42.085 50.54 39.464 49.851 36.978 L 49.91 36.978 L 49.729 36.525 C 49.107 34.967 50.439 33.375 52.081 33.714 L 52.312 33.762 L 52.312 33.761 C 54.317 34.173 56.175 32.52 55.987 30.481 C 55.966 30.261 55.94 30.042 55.908 29.823 C 55.164 24.905 51.096 21.069 46.143 20.614 C 45.747 20.577 45.349 20.562 44.951 20.567 L 44.951 20.567 Z  M 44.959 21.229 C 45.329 21.224 45.704 21.238 46.081 21.273 C 50.73 21.701 54.554 25.306 55.253 29.923 C 55.284 30.129 55.31 30.336 55.329 30.542 C 55.476 32.156 54.033 33.44 52.445 33.113 L 52.215 33.065 C 50.093 32.628 48.309 34.759 49.114 36.77 C 50.002 38.989 48.549 41.453 46.174 41.699 C 45.813 41.737 45.446 41.756 45.074 41.754 C 39.477 41.736 34.751 36.91 34.847 31.312 C 34.941 25.774 39.413 21.307 44.959 21.229 Z  M 44.447 22.552 C 44.264 22.552 44.115 22.701 44.115 22.883 C 44.115 23.065 44.264 23.214 44.447 23.214 C 44.629 23.214 44.778 23.065 44.778 22.883 C 44.778 22.701 44.629 22.552 44.447 22.552 Z  M 45.771 22.552 C 45.589 22.552 45.44 22.701 45.44 22.883 C 45.44 23.065 45.589 23.214 45.771 23.214 C 45.953 23.214 46.102 23.065 46.102 22.883 C 46.102 22.701 45.953 22.552 45.771 22.552 Z  M 43.784 23.214 C 43.602 23.214 43.453 23.363 43.453 23.546 C 43.453 23.728 43.602 23.877 43.784 23.877 C 43.967 23.877 44.115 23.728 44.115 23.546 C 44.115 23.363 43.967 23.214 43.784 23.214 Z  M 45.109 23.214 C 44.927 23.214 44.778 23.363 44.778 23.546 C 44.778 23.728 44.927 23.877 45.109 23.877 C 45.291 23.877 45.44 23.728 45.44 23.546 C 45.44 23.363 45.291 23.214 45.109 23.214 Z  M 46.433 23.214 C 46.251 23.214 46.102 23.363 46.102 23.546 C 46.102 23.728 46.251 23.877 46.433 23.877 C 46.615 23.877 46.764 23.728 46.764 23.546 C 46.764 23.363 46.615 23.214 46.433 23.214 Z  M 44.447 23.877 C 44.264 23.877 44.115 24.026 44.115 24.208 C 44.115 24.39 44.264 24.539 44.447 24.539 C 44.629 24.539 44.778 24.39 44.778 24.208 C 44.778 24.026 44.629 23.877 44.447 23.877 Z  M 45.771 23.877 C 45.589 23.877 45.44 24.026 45.44 24.208 C 45.44 24.39 45.589 24.539 45.771 24.539 C 45.953 24.539 46.102 24.39 46.102 24.208 C 46.102 24.026 45.953 23.877 45.771 23.877 Z  M 39.481 24.539 C 39.298 24.539 39.149 24.688 39.149 24.87 C 39.149 25.052 39.298 25.201 39.481 25.201 C 39.663 25.201 39.812 25.052 39.812 24.87 C 39.812 24.688 39.663 24.539 39.481 24.539 Z  M 40.805 24.539 C 40.623 24.539 40.474 24.688 40.474 24.87 C 40.474 25.052 40.623 25.201 40.805 25.201 C 40.987 25.201 41.136 25.052 41.136 24.87 C 41.136 24.688 40.987 24.539 40.805 24.539 Z  M 43.784 24.539 C 43.602 24.539 43.453 24.688 43.453 24.87 C 43.453 25.052 43.602 25.201 43.784 25.201 C 43.967 25.201 44.115 25.052 44.115 24.87 C 44.115 24.688 43.967 24.539 43.784 24.539 Z  M 45.109 24.539 C 44.927 24.539 44.778 24.688 44.778 24.87 C 44.778 25.052 44.927 25.201 45.109 25.201 C 45.291 25.201 45.44 25.052 45.44 24.87 C 45.44 24.688 45.291 24.539 45.109 24.539 Z  M 46.433 24.539 C 46.251 24.539 46.102 24.688 46.102 24.87 C 46.102 25.052 46.251 25.201 46.433 25.201 C 46.615 25.201 46.764 25.052 46.764 24.87 C 46.764 24.688 46.615 24.539 46.433 24.539 Z  M 49.744 24.87 C 49.562 24.87 49.413 25.019 49.413 25.201 C 49.413 25.383 49.562 25.532 49.744 25.532 C 49.926 25.532 50.075 25.383 50.075 25.201 C 50.075 25.019 49.926 24.87 49.744 24.87 Z  M 51.068 24.87 C 50.886 24.87 50.737 25.019 50.737 25.201 C 50.737 25.383 50.886 25.532 51.068 25.532 C 51.25 25.532 51.399 25.383 51.399 25.201 C 51.399 25.019 51.25 24.87 51.068 24.87 Z  M 38.818 25.201 C 38.636 25.201 38.487 25.35 38.487 25.532 C 38.487 25.714 38.636 25.863 38.818 25.863 C 39 25.863 39.149 25.714 39.149 25.532 C 39.149 25.35 39 25.201 38.818 25.201 Z  M 40.143 25.201 C 39.961 25.201 39.812 25.35 39.812 25.532 C 39.812 25.714 39.961 25.863 40.143 25.863 C 40.325 25.863 40.474 25.714 40.474 25.532 C 40.474 25.35 40.325 25.201 40.143 25.201 Z  M 41.467 25.201 C 41.285 25.201 41.136 25.35 41.136 25.532 C 41.136 25.714 41.285 25.863 41.467 25.863 C 41.649 25.863 41.798 25.714 41.798 25.532 C 41.798 25.35 41.649 25.201 41.467 25.201 Z  M 44.447 25.201 C 44.264 25.201 44.115 25.35 44.115 25.532 C 44.115 25.714 44.264 25.863 44.447 25.863 C 44.629 25.863 44.778 25.714 44.778 25.532 C 44.778 25.35 44.629 25.201 44.447 25.201 Z  M 45.771 25.201 C 45.589 25.201 45.44 25.35 45.44 25.532 C 45.44 25.714 45.589 25.863 45.771 25.863 C 45.953 25.863 46.102 25.714 46.102 25.532 C 46.102 25.35 45.953 25.201 45.771 25.201 Z  M 49.081 25.532 C 48.899 25.532 48.75 25.681 48.75 25.863 C 48.75 26.045 48.899 26.194 49.081 26.194 C 49.264 26.194 49.413 26.045 49.413 25.863 C 49.413 25.681 49.264 25.532 49.081 25.532 Z  M 50.406 25.532 C 50.224 25.532 50.075 25.681 50.075 25.863 C 50.075 26.045 50.224 26.194 50.406 26.194 C 50.588 26.194 50.737 26.045 50.737 25.863 C 50.737 25.681 50.588 25.532 50.406 25.532 Z  M 51.73 25.532 C 51.548 25.532 51.399 25.681 51.399 25.863 C 51.399 26.045 51.548 26.194 51.73 26.194 C 51.912 26.194 52.061 26.045 52.061 25.863 C 52.061 25.681 51.912 25.532 51.73 25.532 Z  M 39.481 25.863 C 39.298 25.863 39.149 26.012 39.149 26.194 C 39.149 26.376 39.298 26.525 39.481 26.525 C 39.663 26.525 39.812 26.376 39.812 26.194 C 39.812 26.012 39.663 25.863 39.481 25.863 Z  M 40.805 25.863 C 40.623 25.863 40.474 26.012 40.474 26.194 C 40.474 26.376 40.623 26.525 40.805 26.525 C 40.987 26.525 41.136 26.376 41.136 26.194 C 41.136 26.012 40.987 25.863 40.805 25.863 Z  M 49.744 26.194 C 49.562 26.194 49.413 26.343 49.413 26.525 C 49.413 26.707 49.562 26.856 49.744 26.856 C 49.926 26.856 50.075 26.707 50.075 26.525 C 50.075 26.343 49.926 26.194 49.744 26.194 Z  M 51.068 26.194 C 50.886 26.194 50.737 26.343 50.737 26.525 C 50.737 26.707 50.886 26.856 51.068 26.856 C 51.25 26.856 51.399 26.707 51.399 26.525 C 51.399 26.343 51.25 26.194 51.068 26.194 Z  M 38.818 26.525 C 38.636 26.525 38.487 26.674 38.487 26.856 C 38.487 27.038 38.636 27.187 38.818 27.187 C 39 27.187 39.149 27.038 39.149 26.856 C 39.149 26.674 39 26.525 38.818 26.525 Z  M 40.143 26.525 C 39.961 26.525 39.812 26.674 39.812 26.856 C 39.812 27.038 39.961 27.187 40.143 27.187 C 40.325 27.187 40.474 27.038 40.474 26.856 C 40.474 26.674 40.325 26.525 40.143 26.525 Z  M 41.467 26.525 C 41.285 26.525 41.136 26.674 41.136 26.856 C 41.136 27.038 41.285 27.187 41.467 27.187 C 41.649 27.187 41.798 27.038 41.798 26.856 C 41.798 26.674 41.649 26.525 41.467 26.525 Z  M 49.081 26.856 C 48.899 26.856 48.75 27.005 48.75 27.187 C 48.75 27.369 48.899 27.518 49.081 27.518 C 49.264 27.518 49.413 27.369 49.413 27.187 C 49.413 27.005 49.264 26.856 49.081 26.856 Z  M 50.406 26.856 C 50.224 26.856 50.075 27.005 50.075 27.187 C 50.075 27.369 50.224 27.518 50.406 27.518 C 50.588 27.518 50.737 27.369 50.737 27.187 C 50.737 27.005 50.588 26.856 50.406 26.856 Z  M 51.73 26.856 C 51.548 26.856 51.399 27.005 51.399 27.187 C 51.399 27.369 51.548 27.518 51.73 27.518 C 51.912 27.518 52.061 27.369 52.061 27.187 C 52.061 27.005 51.912 26.856 51.73 26.856 Z  M 39.481 27.187 C 39.298 27.187 39.149 27.336 39.149 27.518 C 39.149 27.7 39.298 27.849 39.481 27.849 C 39.663 27.849 39.812 27.7 39.812 27.518 C 39.812 27.336 39.663 27.187 39.481 27.187 Z  M 40.805 27.187 C 40.623 27.187 40.474 27.336 40.474 27.518 C 40.474 27.7 40.623 27.849 40.805 27.849 C 40.987 27.849 41.136 27.7 41.136 27.518 C 41.136 27.336 40.987 27.187 40.805 27.187 Z  M 49.744 27.518 C 49.562 27.518 49.413 27.667 49.413 27.849 C 49.413 28.031 49.562 28.18 49.744 28.18 C 49.926 28.18 50.075 28.031 50.075 27.849 C 50.075 27.667 49.926 27.518 49.744 27.518 Z  M 51.068 27.518 C 50.886 27.518 50.737 27.667 50.737 27.849 C 50.737 28.031 50.886 28.18 51.068 28.18 C 51.25 28.18 51.399 28.031 51.399 27.849 C 51.399 27.667 51.25 27.518 51.068 27.518 Z  M 37.494 29.505 C 37.312 29.505 37.163 29.654 37.163 29.836 C 37.163 30.018 37.312 30.167 37.494 30.167 C 37.676 30.167 37.825 30.018 37.825 29.836 C 37.825 29.654 37.676 29.505 37.494 29.505 Z  M 38.818 29.505 C 38.636 29.505 38.487 29.654 38.487 29.836 C 38.487 30.018 38.636 30.167 38.818 30.167 C 39 30.167 39.149 30.018 39.149 29.836 C 39.149 29.654 39 29.505 38.818 29.505 Z  M 36.832 30.167 C 36.65 30.167 36.501 30.316 36.501 30.498 C 36.501 30.68 36.65 30.829 36.832 30.829 C 37.014 30.829 37.163 30.68 37.163 30.498 C 37.163 30.316 37.014 30.167 36.832 30.167 Z  M 38.156 30.167 C 37.974 30.167 37.825 30.316 37.825 30.498 C 37.825 30.68 37.974 30.829 38.156 30.829 C 38.338 30.829 38.487 30.68 38.487 30.498 C 38.487 30.316 38.338 30.167 38.156 30.167 Z  M 39.481 30.167 C 39.298 30.167 39.149 30.316 39.149 30.498 C 39.149 30.68 39.298 30.829 39.481 30.829 C 39.663 30.829 39.812 30.68 39.812 30.498 C 39.812 30.316 39.663 30.167 39.481 30.167 Z  M 37.494 30.829 C 37.312 30.829 37.163 30.978 37.163 31.16 C 37.163 31.342 37.312 31.491 37.494 31.491 C 37.676 31.491 37.825 31.342 37.825 31.16 C 37.825 30.978 37.676 30.829 37.494 30.829 Z  M 38.818 30.829 C 38.636 30.829 38.487 30.978 38.487 31.16 C 38.487 31.342 38.636 31.491 38.818 31.491 C 39 31.491 39.149 31.342 39.149 31.16 C 39.149 30.978 39 30.829 38.818 30.829 Z  M 36.832 31.491 C 36.65 31.491 36.501 31.64 36.501 31.822 C 36.501 32.004 36.65 32.153 36.832 32.153 C 37.014 32.153 37.163 32.004 37.163 31.822 C 37.163 31.64 37.014 31.491 36.832 31.491 Z  M 38.156 31.491 C 37.974 31.491 37.825 31.64 37.825 31.822 C 37.825 32.004 37.974 32.153 38.156 32.153 C 38.338 32.153 38.487 32.004 38.487 31.822 C 38.487 31.64 38.338 31.491 38.156 31.491 Z  M 39.481 31.491 C 39.298 31.491 39.149 31.64 39.149 31.822 C 39.149 32.004 39.298 32.153 39.481 32.153 C 39.663 32.153 39.812 32.004 39.812 31.822 C 39.812 31.64 39.663 31.491 39.481 31.491 Z  M 37.494 32.153 C 37.312 32.153 37.163 32.302 37.163 32.484 C 37.163 32.666 37.312 32.815 37.494 32.815 C 37.676 32.815 37.825 32.666 37.825 32.484 C 37.825 32.302 37.676 32.153 37.494 32.153 Z  M 38.818 32.153 C 38.636 32.153 38.487 32.302 38.487 32.484 C 38.487 32.666 38.636 32.815 38.818 32.815 C 39 32.815 39.149 32.666 39.149 32.484 C 39.149 32.302 39 32.153 38.818 32.153 Z  M 39.481 34.802 C 39.298 34.802 39.149 34.951 39.149 35.133 C 39.149 35.315 39.298 35.464 39.481 35.464 C 39.663 35.464 39.812 35.315 39.812 35.133 C 39.812 34.951 39.663 34.802 39.481 34.802 Z  M 40.805 34.802 C 40.623 34.802 40.474 34.951 40.474 35.133 C 40.474 35.315 40.623 35.464 40.805 35.464 C 40.987 35.464 41.136 35.315 41.136 35.133 C 41.136 34.951 40.987 34.802 40.805 34.802 Z  M 38.818 35.464 C 38.636 35.464 38.487 35.613 38.487 35.795 C 38.487 35.977 38.636 36.126 38.818 36.126 C 39 36.126 39.149 35.977 39.149 35.795 C 39.149 35.613 39 35.464 38.818 35.464 Z  M 40.143 35.464 C 39.961 35.464 39.812 35.613 39.812 35.795 C 39.812 35.977 39.961 36.126 40.143 36.126 C 40.325 36.126 40.474 35.977 40.474 35.795 C 40.474 35.613 40.325 35.464 40.143 35.464 Z  M 41.467 35.464 C 41.285 35.464 41.136 35.613 41.136 35.795 C 41.136 35.977 41.285 36.126 41.467 36.126 C 41.649 36.126 41.798 35.977 41.798 35.795 C 41.798 35.613 41.649 35.464 41.467 35.464 Z  M 39.481 36.126 C 39.298 36.126 39.149 36.275 39.149 36.457 C 39.149 36.639 39.298 36.788 39.481 36.788 C 39.663 36.788 39.812 36.639 39.812 36.457 C 39.812 36.275 39.663 36.126 39.481 36.126 Z  M 40.805 36.126 C 40.623 36.126 40.474 36.275 40.474 36.457 C 40.474 36.639 40.623 36.788 40.805 36.788 C 40.987 36.788 41.136 36.639 41.136 36.457 C 41.136 36.275 40.987 36.126 40.805 36.126 Z  M 45.771 36.126 C 44.678 36.126 43.784 37.02 43.784 38.112 C 43.784 39.205 44.678 40.099 45.771 40.099 C 46.863 40.099 47.757 39.205 47.757 38.112 C 47.757 37.02 46.863 36.126 45.771 36.126 Z  M 38.818 36.788 C 38.636 36.788 38.487 36.937 38.487 37.119 C 38.487 37.301 38.636 37.45 38.818 37.45 C 39 37.45 39.149 37.301 39.149 37.119 C 39.149 36.937 39 36.788 38.818 36.788 Z  M 40.143 36.788 C 39.961 36.788 39.812 36.937 39.812 37.119 C 39.812 37.301 39.961 37.45 40.143 37.45 C 40.325 37.45 40.474 37.301 40.474 37.119 C 40.474 36.937 40.325 36.788 40.143 36.788 Z  M 41.467 36.788 C 41.285 36.788 41.136 36.937 41.136 37.119 C 41.136 37.301 41.285 37.45 41.467 37.45 C 41.649 37.45 41.798 37.301 41.798 37.119 C 41.798 36.937 41.649 36.788 41.467 36.788 Z  M 45.771 36.788 C 46.505 36.788 47.095 37.378 47.095 38.112 C 47.095 38.847 46.505 39.437 45.771 39.437 C 45.036 39.437 44.447 38.847 44.447 38.112 C 44.447 37.378 45.036 36.788 45.771 36.788 Z  M 39.481 37.45 C 39.298 37.45 39.149 37.599 39.149 37.781 C 39.149 37.964 39.298 38.112 39.481 38.112 C 39.663 38.112 39.812 37.964 39.812 37.781 C 39.812 37.599 39.663 37.45 39.481 37.45 Z  M 40.805 37.45 C 40.623 37.45 40.474 37.599 40.474 37.781 C 40.474 37.964 40.623 38.112 40.805 38.112 C 40.987 38.112 41.136 37.964 41.136 37.781 C 41.136 37.599 40.987 37.45 40.805 37.45 Z " fill="rgb(0,0,0)"/><path d=" M 28.415 43.501 C 28.665 43.271 28.819 42.955 28.846 42.616 L 29.713 31.651 C 30.123 31.464 30.403 31.073 30.448 30.624 L 30.675 28.344 C 30.88 28.165 30.998 27.906 30.998 27.634 C 30.999 27.213 30.723 26.841 30.32 26.72 C 30.778 26.133 31.027 25.409 31.026 24.664 C 31.028 23.185 30.272 22.551 29.608 21.991 C 28.929 21.419 28.292 20.882 28.291 19.44 C 28.291 19.322 28.225 19.212 28.122 19.159 C 28.018 19.104 27.889 19.11 27.792 19.175 C 26.857 19.815 26.13 20.388 25.572 20.946 C 24.419 22.099 24 23.186 24 24.666 C 24 25.408 24.246 26.128 24.702 26.714 C 24.544 26.759 24.4 26.839 24.281 26.958 C 24.101 27.138 24 27.38 24.001 27.634 C 24 27.887 24.101 28.13 24.281 28.308 C 24.295 28.321 24.31 28.332 24.324 28.344 L 24.552 30.624 C 24.597 31.073 24.877 31.464 25.288 31.65 L 26.152 42.617 C 26.208 43.314 26.799 43.862 27.5 43.861 C 27.839 43.861 28.166 43.733 28.415 43.501 Z  M 27.984 43.034 C 27.856 43.151 27.684 43.224 27.5 43.224 C 27.129 43.224 26.816 42.936 26.787 42.566 L 25.935 31.769 L 29.065 31.77 L 28.212 42.566 C 28.199 42.751 28.112 42.916 27.984 43.034 Z  M 29.608 30.97 C 29.496 31.072 29.345 31.134 29.181 31.133 L 25.818 31.134 C 25.49 31.134 25.217 30.888 25.185 30.561 L 24.988 28.587 L 30.013 28.588 L 29.815 30.559 C 29.799 30.717 29.725 30.864 29.608 30.97 Z  M 29.316 30.404 C 29.375 30.344 29.408 30.263 29.408 30.179 L 29.41 29.543 C 29.409 29.414 29.331 29.299 29.213 29.249 C 29.094 29.2 28.957 29.227 28.866 29.317 C 28.808 29.375 28.773 29.455 28.772 29.542 L 28.773 30.179 C 28.772 30.263 28.806 30.345 28.865 30.404 C 28.925 30.464 29.006 30.497 29.09 30.496 C 29.175 30.497 29.257 30.464 29.316 30.404 Z  M 27.726 30.404 C 27.785 30.344 27.819 30.263 27.819 30.179 L 27.817 29.543 C 27.818 29.458 27.785 29.377 27.725 29.318 C 27.665 29.258 27.584 29.225 27.5 29.225 C 27.415 29.225 27.334 29.258 27.275 29.318 C 27.215 29.377 27.182 29.458 27.183 29.543 L 27.181 30.179 C 27.181 30.308 27.259 30.424 27.378 30.473 C 27.497 30.522 27.634 30.495 27.725 30.404 L 27.726 30.404 Z  M 30.27 27.858 C 30.212 27.916 30.135 27.948 30.05 27.953 L 27.468 27.951 L 24.953 27.951 C 24.87 27.953 24.79 27.917 24.731 27.858 C 24.67 27.797 24.636 27.719 24.636 27.634 C 24.636 27.462 24.785 27.314 24.954 27.316 L 25.304 27.316 L 26.101 27.316 L 28.928 27.314 L 30.044 27.314 C 30.22 27.315 30.363 27.458 30.364 27.634 C 30.362 27.722 30.328 27.8 30.27 27.858 L 30.27 27.858 Z  M 26.133 30.404 C 26.191 30.346 26.227 30.268 26.228 30.179 L 26.226 29.543 C 26.227 29.459 26.194 29.377 26.134 29.318 C 26.074 29.258 25.993 29.225 25.909 29.226 C 25.822 29.224 25.742 29.261 25.685 29.318 C 25.625 29.377 25.591 29.458 25.592 29.543 L 25.59 30.179 C 25.591 30.356 25.732 30.497 25.909 30.498 C 25.993 30.498 26.074 30.464 26.133 30.404 Z  M 29.692 26.477 C 29.627 26.546 29.559 26.614 29.487 26.679 L 28.225 26.679 L 28.445 25.8 C 28.487 25.631 28.384 25.459 28.214 25.416 C 28.043 25.374 27.871 25.478 27.827 25.648 L 27.57 26.68 L 27.411 26.679 L 26.848 24.988 C 26.792 24.821 26.612 24.731 26.445 24.786 C 26.278 24.842 26.188 25.022 26.244 25.189 L 26.74 26.68 L 25.536 26.68 C 24.967 26.16 24.636 25.438 24.636 24.664 C 24.634 23.024 25.106 21.877 27.689 20.027 C 27.851 21.346 28.56 21.941 29.198 22.477 C 29.837 23.017 30.389 23.483 30.392 24.663 C 30.392 25.334 30.142 25.98 29.692 26.477 Z " fill="rgb(0,0,0)"/></g></svg>