<?xml version="1.0" encoding="UTF-8" standalone="no"?><!-- Generator: Gravit.io --><svg xmlns="http://www.w3.org/2000/svg" xmlns:xlink="http://www.w3.org/1999/xlink" style="isolation:isolate" viewBox="0 0 75 70.926" ><defs><clipPath id="_clipPath_NOnU6F39QoQp5tVx60jqBj8jkgLwlMCI"><rect width="75" height="70.926"/></clipPath></defs><g clip-path="url(#_clipPath_NOnU6F39QoQp5tVx60jqBj8jkgLwlMCI)"><path d=" M 37.5 0 C 16.875 0 0 16.473 0 36.607 C 0 52.165 9.997 65.432 23.906 70.77 C 25.313 70.466 26.563 69.245 26.563 67.719 L 26.563 61.011 L 22.497 61.011 C 19.531 61.011 17.028 59.642 15.784 57.503 C 15.466 56.893 15.155 56.13 14.844 55.368 C 14.222 53.69 13.441 51.86 11.878 50.792 C 11.248 50.334 10.938 49.416 11.097 48.653 C 11.408 47.891 12.189 47.284 13.592 47.439 C 15.155 47.587 17.498 49.268 18.909 51.097 C 20.153 52.622 21.094 53.54 22.967 53.54 L 23.438 53.54 C 24.841 53.54 28.284 53.54 28.906 52.926 C 29.375 52.319 29.688 51.86 30.156 51.4 C 20.781 49.572 15.466 44.233 15.466 36.148 C 15.466 33.402 16.247 30.661 17.969 28.218 C 17.347 25.93 15.938 19.984 18.909 17.385 L 19.372 16.934 L 20.002 16.934 C 24.059 16.934 27.033 18.607 28.906 19.984 C 34.375 18 40.625 18 46.094 19.984 C 47.816 18.607 50.781 16.934 55 16.934 L 55.628 16.934 L 56.091 17.385 C 59.064 20.132 57.653 25.93 57.031 28.218 C 58.594 30.661 59.534 33.401 59.534 36.149 C 59.534 44.233 54.217 49.572 45.002 51.402 C 47.345 53.842 48.595 57.503 48.595 60.404 L 48.595 67.875 C 48.595 69.4 49.689 70.621 51.252 70.926 C 65 65.432 75 52.165 75 36.607 C 75 16.473 58.125 0 37.5 0 Z " fill="rgb(0,0,0)"/></g></svg>