<?xml version="1.0" encoding="UTF-8" standalone="no"?><!-- Generator: Gravit.io --><svg xmlns="http://www.w3.org/2000/svg" xmlns:xlink="http://www.w3.org/1999/xlink" style="isolation:isolate" viewBox="0 0 121.49 137.303" width="121.49pt" height="137.303pt"><defs><clipPath id="_clipPath_YpJfUbB7zIhZM0zh5XnBI6UCJ3MReBOh"><rect width="121.49" height="137.303"/></clipPath></defs><g clip-path="url(#_clipPath_YpJfUbB7zIhZM0zh5XnBI6UCJ3MReBOh)"><g><g><g><path d=" M 0 0 L 11.064 123.573 L 60.745 137.303 L 110.408 123.581 L 121.49 0 L 0 0 Z  M 97.496 40.41 L 60.745 40.41 L 39.259 40.41 L 40.647 55.934 L 60.745 55.934 L 96.107 55.934 L 91.933 102.48 L 60.745 111.087 L 60.728 111.095 L 29.557 102.48 L 27.37 78.134 L 42.643 78.134 L 43.771 90.766 L 60.719 95.331 L 60.745 95.314 L 77.71 90.749 L 79.481 71.089 L 60.745 71.089 L 26.745 71.089 L 22.632 25.264 L 60.745 25.264 L 98.849 25.264 L 97.496 40.41 Z " fill="rgb(53,52,51)"/></g></g></g></g></svg>