<?xml version="1.0" encoding="UTF-8" standalone="no"?><!-- Generator: Gravit.io --><svg xmlns="http://www.w3.org/2000/svg" xmlns:xlink="http://www.w3.org/1999/xlink" style="isolation:isolate" viewBox="0 0 134 134" width="134pt" height="134pt"><defs><clipPath id="_clipPath_MLkRQsea8AJL0AlYKI6vOhswW4EjKTs7"><rect width="134" height="134"/></clipPath></defs><g clip-path="url(#_clipPath_MLkRQsea8AJL0AlYKI6vOhswW4EjKTs7)"><g><path d="M 26.13 0 L 107.87 0 C 122.292 0 134 11.708 134 26.13 L 134 107.87 C 134 122.292 122.292 134 107.87 134 L 26.13 134 C 11.708 134 0 122.292 0 107.87 L 0 26.13 C 0 11.708 11.708 0 26.13 0 Z" style="fill:none;stroke:rgb(53,52,51);stroke-width:14;stroke-linecap:square;stroke-miterlimit:2;"/><path d=" M 46.183 93.756 L 46.183 53.144 L 58.359 53.144 L 58.359 93.756 L 58.359 93.756 Q 58.359 99.356 55.863 103.647 L 55.863 103.647 L 55.863 103.647 Q 53.367 107.937 48.821 110.274 L 48.821 110.274 L 48.821 110.274 Q 44.275 112.611 38.553 112.611 L 38.553 112.611 L 38.553 112.611 Q 29.177 112.611 23.941 107.877 L 23.941 107.877 L 23.941 107.877 Q 18.706 103.143 18.706 94.481 L 18.706 94.481 L 30.963 94.481 L 30.963 94.481 Q 30.963 98.792 32.789 100.846 L 32.789 100.846 L 32.789 100.846 Q 34.616 102.901 38.553 102.901 L 38.553 102.901 L 38.553 102.901 Q 42.043 102.901 44.113 100.524 L 44.113 100.524 L 44.113 100.524 Q 46.183 98.147 46.183 93.756 L 46.183 93.756 Z  M 101.332 96.415 L 101.332 96.415 L 101.332 96.415 Q 101.332 92.99 98.897 91.157 L 98.897 91.157 L 98.897 91.157 Q 96.462 89.324 90.13 87.289 L 90.13 87.289 L 90.13 87.289 Q 83.799 85.255 80.105 83.28 L 80.105 83.28 L 80.105 83.28 Q 70.04 77.882 70.04 68.736 L 70.04 68.736 L 70.04 68.736 Q 70.04 63.982 72.739 60.255 L 72.739 60.255 L 72.739 60.255 Q 75.438 56.528 80.491 54.433 L 80.491 54.433 L 80.491 54.433 Q 85.544 52.338 91.835 52.338 L 91.835 52.338 L 91.835 52.338 Q 98.166 52.338 103.118 54.615 L 103.118 54.615 L 103.118 54.615 Q 108.069 56.891 110.809 61.041 L 110.809 61.041 L 110.809 61.041 Q 113.549 65.191 113.549 70.468 L 113.549 70.468 L 101.373 70.468 L 101.373 70.468 Q 101.373 66.44 98.816 64.204 L 98.816 64.204 L 98.816 64.204 Q 96.259 61.967 91.632 61.967 L 91.632 61.967 L 91.632 61.967 Q 87.167 61.967 84.692 63.841 L 84.692 63.841 L 84.692 63.841 Q 82.216 65.714 82.216 68.776 L 82.216 68.776 L 82.216 68.776 Q 82.216 71.637 85.118 73.571 L 85.118 73.571 L 85.118 73.571 Q 88.02 75.505 93.661 77.197 L 93.661 77.197 L 93.661 77.197 Q 104.051 80.299 108.8 84.892 L 108.8 84.892 L 108.8 84.892 Q 113.549 89.485 113.549 96.334 L 113.549 96.334 L 113.549 96.334 Q 113.549 103.949 107.745 108.28 L 107.745 108.28 L 107.745 108.28 Q 101.941 112.611 92.119 112.611 L 92.119 112.611 L 92.119 112.611 Q 85.3 112.611 79.7 110.133 L 79.7 110.133 L 79.7 110.133 Q 74.099 107.655 71.156 103.344 L 71.156 103.344 L 71.156 103.344 Q 68.214 99.033 68.214 93.353 L 68.214 93.353 L 80.43 93.353 L 80.43 93.353 Q 80.43 103.062 92.119 103.062 L 92.119 103.062 L 92.119 103.062 Q 96.462 103.062 98.897 101.31 L 98.897 101.31 L 98.897 101.31 Q 101.332 99.557 101.332 96.415 Z " fill="rgb(53,52,51)"/></g></g></svg>