<?xml version="1.0" encoding="UTF-8" standalone="no"?><!-- Generator: Gravit.io --><svg xmlns="http://www.w3.org/2000/svg" xmlns:xlink="http://www.w3.org/1999/xlink" style="isolation:isolate" viewBox="0 0 147.68 131.625" width="147.68pt" height="131.625pt"><defs><clipPath id="_clipPath_YsSjphIlIdeebiRAvPjNSbJMh9OppQTG"><rect width="147.68" height="131.625"/></clipPath></defs><g clip-path="url(#_clipPath_YsSjphIlIdeebiRAvPjNSbJMh9OppQTG)"><g><path d=" M 147.18 65.827 C 147.18 56.11 135.011 46.902 116.355 41.191 C 120.66 22.176 118.747 7.048 110.316 2.204 C 108.372 1.068 106.1 0.53 103.618 0.53 L 103.618 7.197 C 104.994 7.197 106.1 7.466 107.027 7.975 C 111.093 10.307 112.857 19.186 111.482 30.607 C 111.153 33.418 110.615 36.378 109.957 39.397 C 104.097 37.962 97.699 36.856 90.972 36.138 C 86.935 30.607 82.75 25.584 78.534 21.189 C 88.281 12.13 97.43 7.167 103.648 7.167 L 103.648 0.5 C 95.426 0.5 84.663 6.36 73.78 16.525 C 62.897 6.42 52.134 0.62 43.912 0.62 L 43.912 7.287 C 50.101 7.287 59.28 12.22 69.026 21.219 C 64.841 25.614 60.655 30.607 56.678 36.138 C 49.921 36.856 43.523 37.962 37.663 39.427 C 36.976 36.437 36.467 33.537 36.109 30.757 C 34.703 19.336 36.437 10.456 40.474 8.094 C 41.371 7.556 42.537 7.317 43.912 7.317 L 43.912 0.649 C 41.401 0.649 39.128 1.188 37.155 2.324 C 28.754 7.167 26.87 22.266 31.205 41.221 C 12.609 46.962 0.5 56.14 0.5 65.827 C 0.5 75.544 12.669 84.753 31.325 90.463 C 27.02 109.478 28.933 124.607 37.364 129.45 C 39.308 130.586 41.58 131.125 44.091 131.125 C 52.313 131.125 63.077 125.265 73.96 115.099 C 84.842 125.205 95.606 131.005 103.828 131.005 C 106.339 131.005 108.611 130.467 110.585 129.331 C 118.986 124.487 120.87 109.389 116.534 90.433 C 135.071 84.723 147.18 75.514 147.18 65.827 L 147.18 65.827 Z  M 108.253 45.885 C 107.146 49.742 105.771 53.719 104.216 57.695 C 102.991 55.303 101.705 52.911 100.3 50.519 C 98.924 48.128 97.459 45.796 95.994 43.523 C 100.24 44.151 104.336 44.929 108.253 45.885 Z  M 94.559 77.727 C 92.227 81.763 89.835 85.59 87.354 89.148 C 82.899 89.536 78.384 89.746 73.84 89.746 C 69.325 89.746 64.811 89.536 60.386 89.178 C 57.904 85.62 55.483 81.823 53.15 77.816 C 50.878 73.9 48.815 69.923 46.932 65.917 C 48.785 61.911 50.878 57.904 53.121 53.988 C 55.453 49.951 57.844 46.124 60.326 42.567 C 64.781 42.178 69.295 41.969 73.84 41.969 C 78.355 41.969 82.869 42.178 87.294 42.537 C 89.776 46.095 92.197 49.892 94.529 53.898 C 96.802 57.815 98.865 61.791 100.748 65.797 C 98.865 69.804 96.802 73.81 94.559 77.727 Z  M 104.216 73.84 C 105.831 77.846 107.206 81.853 108.342 85.739 C 104.426 86.696 100.3 87.503 96.024 88.131 C 97.489 85.829 98.954 83.467 100.33 81.045 C 101.705 78.654 102.991 76.232 104.216 73.84 Z  M 73.9 105.741 C 71.119 102.871 68.339 99.672 65.588 96.174 C 68.279 96.293 71.03 96.383 73.81 96.383 C 76.62 96.383 79.401 96.323 82.122 96.174 C 79.431 99.672 76.65 102.871 73.9 105.741 Z  M 51.656 88.131 C 47.41 87.503 43.314 86.726 39.397 85.769 C 40.504 81.912 41.879 77.936 43.434 73.96 C 44.659 76.351 45.945 78.743 47.35 81.135 C 48.755 83.527 50.191 85.859 51.656 88.131 Z  M 73.75 25.913 C 76.531 28.784 79.311 31.983 82.062 35.481 C 79.371 35.361 76.62 35.271 73.84 35.271 C 71.03 35.271 68.249 35.331 65.528 35.481 C 68.219 31.983 71 28.784 73.75 25.913 Z  M 51.626 43.523 C 50.161 45.825 48.696 48.187 47.32 50.609 C 45.945 53.001 44.659 55.393 43.434 57.785 C 41.819 53.778 40.444 49.772 39.308 45.885 C 43.224 44.958 47.35 44.151 51.626 43.523 Z  M 24.568 80.956 C 13.984 76.441 7.137 70.521 7.137 65.827 C 7.137 61.133 13.984 55.184 24.568 50.699 C 27.139 49.593 29.95 48.606 32.85 47.679 C 34.554 53.539 36.796 59.638 39.577 65.887 C 36.826 72.106 34.614 78.175 32.939 84.005 C 29.979 83.078 27.169 82.062 24.568 80.956 Z  M 40.653 123.68 C 36.587 121.348 34.823 112.468 36.198 101.047 C 36.527 98.237 37.065 95.277 37.723 92.257 C 43.583 93.692 49.981 94.798 56.708 95.516 C 60.745 101.047 64.93 106.07 69.146 110.465 C 59.399 119.524 50.25 124.487 44.032 124.487 C 42.686 124.457 41.55 124.188 40.653 123.68 L 40.653 123.68 Z  M 111.571 100.898 C 112.977 112.319 111.242 121.198 107.206 123.56 C 106.309 124.099 105.143 124.338 103.768 124.338 C 97.579 124.338 88.4 119.405 78.654 110.405 C 82.839 106.01 87.025 101.017 91.001 95.486 C 97.758 94.769 104.157 93.662 110.017 92.197 C 110.704 95.217 111.242 98.117 111.571 100.898 L 111.571 100.898 Z  M 123.082 80.956 C 120.511 82.062 117.7 83.049 114.8 83.975 C 113.096 78.115 110.854 72.016 108.073 65.767 C 110.824 59.549 113.036 53.479 114.711 47.649 C 117.67 48.576 120.481 49.593 123.112 50.699 C 133.696 55.213 140.543 61.133 140.543 65.827 C 140.513 70.521 133.666 76.471 123.082 80.956 L 123.082 80.956 Z " fill="rgb(53,52,51)" vector-effect="non-scaling-stroke" stroke-width="1" stroke="rgb(104,103,102)" stroke-linejoin="miter" stroke-linecap="butt" stroke-miterlimit="4"/><circle vector-effect="non-scaling-stroke" cx="73.81004780838919" cy="65.82726446479819" r="13.663414123760049" fill="rgb(53,52,51)"/></g></g></svg>